<svg width="76" height="45" viewBox="0 0 76 45" fill="none" xmlns="http://www.w3.org/2000/svg">
<path fill-rule="evenodd" clip-rule="evenodd" d="M7.94464 2C4.66151 2 2 4.66151 2 7.94464C2 11.2278 4.66151 13.8893 7.94464 13.8893C11.2278 13.8893 13.8893 11.2278 13.8893 7.94464C13.8893 4.66151 11.2278 2 7.94464 2ZM0 7.94464C0 3.55694 3.55694 0 7.94464 0C12.3323 0 15.8893 3.55694 15.8893 7.94464C15.8893 12.3323 12.3323 15.8893 7.94464 15.8893C3.55694 15.8893 0 12.3323 0 7.94464ZM58.7665 7.37642L75.0294 23.0585L73.6412 24.4982L58.792 10.1794L24.7632 44.2082L23.349 42.794L37.3806 28.7624L27.103 19.0547L1.69976 43.9379L0.300243 42.5091L27.0778 16.2797L38.7954 27.3476L58.7665 7.37642Z" fill="#C6CFD8"/>
</svg>
