<svg width="258" height="38" viewBox="0 0 258 38" fill="none" xmlns="http://www.w3.org/2000/svg">
<g clip-path="url(#clip0_1833_11614)">
<path d="M21.0118 4.38284L20.8815 4.24449C20.7786 4.13528 20.676 4.02899 20.5712 3.92574C15.9525 -0.623212 8.46107 -0.623193 3.84249 3.92578C-0.751689 8.45078 -0.481585 15.5207 3.86514 20.405C9.15719 26.3515 15.064 32.0315 21.2531 37.329C27.4422 32.0315 33.349 26.3515 38.641 20.405L39.0145 20.7374L38.641 20.405C42.9878 15.5207 43.2578 8.45078 38.6637 3.92578C34.0452 -0.623161 26.5538 -0.623215 21.935 3.92565L21.0118 4.38284ZM21.0118 4.38284L21.2389 4.6484L21.2714 4.6131M21.0118 4.38284L21.2714 4.6131M21.2714 4.6131L21.2745 4.61611L21.6246 4.24458C21.7275 4.13535 21.8301 4.02905 21.9349 3.92579L21.2714 4.6131Z" fill="#007A8F" stroke="#007A8F"/>
<g filter="url(#filter0_d_1833_11614)">
<path d="M7.89023 32.2248C7.41887 32.2248 6.98955 32.0289 6.67764 31.7133L6.67675 31.7141C6.36573 31.3991 6.17259 30.9639 6.17259 30.4852V21.5397C6.00315 21.6231 5.81307 21.67 5.61265 21.67C5.25776 21.67 4.93556 21.5232 4.7024 21.2871C4.46924 21.0509 4.32438 20.7246 4.32438 20.3654V13.557L4.31866 13.4789C4.31596 13.4293 4.31445 13.3913 4.31445 13.3665V12.5257C4.31445 11.9696 4.53888 11.4641 4.90027 11.0981C5.26166 10.7321 5.76078 10.5048 6.30991 10.5048H8.81364C8.47268 10.3825 8.16695 10.1844 7.91627 9.93056L7.91466 9.92893C7.47983 9.48844 7.2107 8.88039 7.2107 8.20943C7.2107 7.53848 7.47983 6.93043 7.91466 6.48998L7.91627 6.48835C8.35116 6.04796 8.95153 5.77539 9.61401 5.77539C10.2765 5.77539 10.8769 6.04796 11.3118 6.48835L11.3134 6.48998C11.7482 6.93043 12.0174 7.53848 12.0174 8.20943C12.0174 8.88039 11.7482 9.48844 11.3134 9.92893L11.3118 9.93056C11.0611 10.1844 10.7554 10.3825 10.4144 10.5048H12.8251C13.1462 10.5048 13.4107 10.6303 13.6259 10.8226C13.8601 11.0321 14.0243 11.319 14.1335 11.5928L17.2021 19.285H19.7072C19.6446 19.2351 19.5849 19.1814 19.5287 19.1244L19.5295 19.1236C19.166 18.7552 18.9411 18.2475 18.9411 17.6881C18.9411 17.1272 19.1657 16.6194 19.5287 16.2517H19.5303C19.8933 15.8842 20.3943 15.6567 20.9469 15.6567C21.5006 15.6567 22.0021 15.8842 22.3651 16.2518C22.7279 16.6193 22.9526 17.1272 22.9526 17.6881C22.9526 18.2477 22.7279 18.7552 22.3651 19.1228V19.1244C22.3089 19.1814 22.2491 19.2351 22.1866 19.285H24.3676L27.4361 11.5928C27.5454 11.319 27.7096 11.0321 27.9438 10.8226C28.1589 10.6303 28.4234 10.5048 28.7445 10.5048H30.3573C30.0163 10.3825 29.7106 10.1844 29.4599 9.93056L29.4583 9.92893C29.0235 9.48844 28.7544 8.88039 28.7544 8.20943C28.7544 7.53848 29.0235 6.93043 29.4583 6.48998L29.4599 6.48835C29.8948 6.04796 30.4952 5.77539 31.1577 5.77539C31.8202 5.77539 32.4205 6.04796 32.8555 6.48835L32.8571 6.48998C33.2919 6.93043 33.561 7.53848 33.561 8.20943C33.561 8.88039 33.2919 9.48844 32.8571 9.92893L32.8555 9.93056C32.6047 10.1844 32.299 10.3825 31.9581 10.5048H33.5878C33.9089 10.5048 34.1734 10.6303 34.3885 10.8226C34.6227 11.0321 34.7869 11.319 34.8961 11.5928L38.0927 19.6057C38.232 19.9551 38.2176 20.3308 38.0821 20.6543C37.9467 20.9773 37.6893 21.2488 37.3427 21.3905L37.2638 21.4228H37.2551C36.9355 21.5284 36.5997 21.5056 36.3073 21.3799C35.9884 21.2426 35.7204 20.9819 35.5804 20.6313L35.2458 19.7924C35.5966 21.1163 35.852 22.1167 35.852 22.1809C35.852 22.5332 35.7097 22.8539 35.4798 23.0874L35.4782 23.089C35.2478 23.3217 34.9311 23.4658 34.5833 23.4658H34.0428V30.5836C34.0428 31.0253 33.864 31.4273 33.5764 31.7186L33.5748 31.7203C33.2871 32.0116 32.8901 32.1926 32.4541 32.1926C32.0165 32.1926 31.6191 32.0116 31.3315 31.7203C31.2464 31.6341 31.1708 31.5382 31.1066 31.4343C31.0413 31.541 30.9641 31.6397 30.8769 31.7281L30.8752 31.7297C30.5876 32.021 30.1906 32.202 29.7545 32.202C29.317 32.202 28.9196 32.021 28.632 31.7297C28.3443 31.4383 28.1656 31.0358 28.1656 30.593V23.4658H27.6323C27.2842 23.4658 26.967 23.3214 26.7365 23.0881L26.7357 23.089C26.5061 22.8565 26.3635 22.5351 26.3635 22.1809C26.3635 22.1323 26.4965 21.5977 26.7023 20.8066C26.6411 20.9697 26.5421 21.1084 26.4168 21.2227C26.2346 21.3888 25.9968 21.4995 25.7465 21.5537L23.188 22.1084V30.9537C23.188 31.2878 23.0528 31.5917 22.8352 31.8123V31.814C22.6176 32.0344 22.3168 32.1713 21.9858 32.1713C21.6546 32.1713 21.3537 32.0344 21.1362 31.814V31.8123C21.0576 31.7328 20.9899 31.6424 20.9353 31.5437C20.8807 31.6431 20.8126 31.7341 20.7337 31.8139C20.5161 32.0343 20.2153 32.1712 19.8843 32.1712C19.5531 32.1712 19.2523 32.0343 19.0347 31.8139C18.8171 31.5935 18.6819 31.289 18.6819 30.9537V22.0819L15.9643 21.5554C15.8407 21.5315 15.7207 21.4929 15.6094 21.4407C15.5005 21.3896 15.3998 21.3258 15.312 21.25C15.2079 21.1787 15.1141 21.0941 15.0345 20.9981C14.9465 20.8917 14.8726 20.7686 14.8177 20.631L12.8257 15.6375V30.4853C12.8257 30.9641 12.6325 31.3991 12.3215 31.7141L12.3206 31.7133C12.0087 32.0289 11.5794 32.2248 11.1082 32.2248C10.6367 32.2248 10.2075 32.0289 9.89551 31.7133L9.89468 31.7141C9.72233 31.5396 9.58631 31.3283 9.49909 31.093C9.41193 31.3283 9.27581 31.5397 9.10356 31.7141L9.10267 31.7133C8.79077 32.0289 8.36145 32.2248 7.89023 32.2248ZM7.89008 31.355C8.12704 31.355 8.34164 31.2576 8.49638 31.1009V31.0992C8.65215 30.9414 8.74898 30.724 8.74898 30.4852V21.0955H10.2493V30.4853C10.2493 30.724 10.346 30.9414 10.5019 31.0992V31.1009C10.6566 31.2576 10.8712 31.355 11.108 31.355C11.3449 31.355 11.5595 31.2576 11.7143 31.1009V31.0992C11.8701 30.9414 11.9669 30.724 11.9669 30.4853V13.6804L11.9787 13.6297C11.9872 13.5926 11.9932 13.5642 11.9959 13.5459V13.5442C11.9988 13.5251 12.0019 13.4969 12.0048 13.4602L12.151 11.6309L15.6128 20.3083C15.632 20.3565 15.6591 20.4011 15.692 20.4409C15.7271 20.4832 15.7663 20.5181 15.8073 20.5441L15.8464 20.5689L15.8644 20.5849C15.8943 20.6116 15.9297 20.6343 15.9684 20.6525C16.0162 20.6749 16.0694 20.6919 16.1254 20.7026L19.5407 21.3642V30.9537C19.5407 31.0489 19.5795 31.1358 19.6419 31.199C19.7042 31.2621 19.7901 31.3014 19.8841 31.3014C19.9783 31.3014 20.0642 31.2621 20.1265 31.199C20.1889 31.1358 20.2277 31.0489 20.2277 30.9537V25.4463H21.6422V30.9537C21.6422 31.0495 21.6806 31.1367 21.7425 31.1998L21.7433 31.199C21.8057 31.2622 21.8915 31.3015 21.9856 31.3015C22.0798 31.3015 22.1657 31.2622 22.228 31.199L22.2288 31.1998C22.2907 31.1367 22.3292 31.0495 22.3292 30.9537V21.4066L25.5687 20.7043C25.6787 20.6806 25.7767 20.6377 25.8431 20.5771C25.8814 20.5423 25.9074 20.5008 25.9132 20.4548L25.9214 20.3894C26.9794 18.0058 27.8736 15.4144 28.8775 12.987L29.681 13.2893C29.4858 13.8658 29.0292 15.479 28.5619 17.1795C27.9041 19.5737 27.2223 22.1211 27.2223 22.1809C27.2223 22.295 27.2685 22.3988 27.3428 22.474V22.4757C27.4161 22.55 27.5187 22.5961 27.6323 22.5961H29.0244V30.593C29.0244 30.7958 29.1067 30.9806 29.2392 31.1148C29.3716 31.2489 29.554 31.3322 29.7542 31.3322C29.9554 31.3322 30.1381 31.2491 30.2705 31.1155C30.4024 30.9815 30.4844 30.7964 30.4844 30.593V22.5961H31.724V30.5836C31.724 30.7864 31.8062 30.9713 31.9387 31.1054C32.0711 31.2395 32.2535 31.3228 32.4538 31.3228C32.6549 31.3228 32.8377 31.2398 32.97 31.1062C33.1019 30.9721 33.184 30.787 33.184 30.5836V22.5961H34.5833C34.697 22.5961 34.7994 22.55 34.8727 22.4757L34.8743 22.474C34.9477 22.3999 34.9932 22.2961 34.9932 22.1809C34.9932 22.108 34.137 18.9175 33.4167 16.3231C32.95 14.6421 32.5558 13.2471 32.5266 13.2115L31.9424 12.4997H33.2603L36.3754 20.3082C36.4262 20.4355 36.5248 20.5307 36.6427 20.5814C36.7577 20.6308 36.8912 20.637 37.0158 20.5886L37.0859 20.5531H37.0887C37.182 20.4974 37.2527 20.4125 37.2937 20.3146C37.3436 20.1955 37.3488 20.0569 37.2976 19.9284L34.101 11.9155C34.0341 11.7474 33.9411 11.5784 33.8215 11.4715C33.7559 11.4128 33.6781 11.3745 33.5878 11.3745H28.7445C28.6541 11.3745 28.5763 11.4129 28.5107 11.4715C28.391 11.5785 28.2982 11.7474 28.2312 11.9155L24.9443 20.1548H16.6252L13.3384 11.9155C13.2714 11.7474 13.1786 11.5784 13.0589 11.4715C12.9933 11.4128 12.9155 11.3745 12.8251 11.3745H6.30991C5.99774 11.3745 5.71354 11.5042 5.50745 11.713C5.30132 11.9217 5.17325 12.2095 5.17325 12.5257L5.17403 13.4314L5.18214 13.5161L5.18151 13.5569H5.18313V20.3654C5.18313 20.4845 5.23167 20.5933 5.30958 20.6722C5.38744 20.751 5.49482 20.8002 5.61245 20.8002C5.73027 20.8002 5.83766 20.751 5.91552 20.6722C5.99343 20.5933 6.04192 20.4845 6.04192 20.3654V14.5176H7.03139V30.4852C7.03139 30.724 7.12817 30.9414 7.28394 31.0992V31.1009C7.43867 31.2576 7.65333 31.355 7.89008 31.355ZM21.7579 16.8668C21.5504 16.6566 21.2636 16.5265 20.9469 16.5265C20.6296 16.5265 20.3424 16.6563 20.1351 16.8659L20.1358 16.8667C19.9284 17.0768 19.7999 17.3673 19.7999 17.6881C19.7999 18.01 19.9277 18.3005 20.1342 18.5095H20.1358C20.3433 18.7197 20.6301 18.8498 20.9469 18.8498C21.2636 18.8498 21.5504 18.7197 21.7579 18.5095L21.7587 18.5103C21.9657 18.3002 22.0938 18.0095 22.0938 17.6881C22.0938 17.3673 21.9653 17.0768 21.7579 16.8668ZM32.2507 7.10246C31.9713 6.81999 31.5849 6.64517 31.1577 6.64517C30.7305 6.64517 30.3441 6.81999 30.0647 7.10246C29.7858 7.3854 29.6132 7.77683 29.6132 8.20943C29.6132 8.64208 29.7858 9.03346 30.0647 9.31641C30.3441 9.59893 30.7305 9.77375 31.1577 9.77375C31.5849 9.77375 31.9713 9.59893 32.2507 9.31641C32.5296 9.03346 32.7023 8.64208 32.7023 8.20943C32.7023 7.77683 32.5296 7.3854 32.2507 7.10246ZM10.707 7.10246C10.4276 6.81999 10.0412 6.64517 9.61401 6.64517C9.18688 6.64517 8.80038 6.81999 8.52101 7.10246C8.24211 7.3854 8.0695 7.77683 8.0695 8.20943C8.0695 8.64208 8.24211 9.03346 8.52101 9.31641C8.80038 9.59893 9.18688 9.77375 9.61401 9.77375C10.0412 9.77375 10.4276 9.59893 10.707 9.31641C10.986 9.03346 11.1586 8.64208 11.1586 8.20943C11.1586 7.77683 10.986 7.3854 10.707 7.10246Z" fill="#FEFEFE"/>
</g>
<path fill-rule="evenodd" clip-rule="evenodd" d="M7.8905 31.7898H7.89034C7.18181 31.7898 6.60223 31.2028 6.60223 30.4852V14.9525H6.47161V20.3653C6.47161 20.8437 6.08522 21.235 5.61292 21.235H5.61271C5.1404 21.235 4.75402 20.8437 4.75402 20.3653V13.5569L4.75417 13.5446C4.74767 13.4862 4.74414 13.4267 4.74414 13.3665V12.5257C4.74414 11.6533 5.44878 10.9396 6.31017 10.9396H10.7097H10.8719H12.8254C13.2905 10.9396 13.5781 11.3576 13.7363 11.7541L16.914 19.7198H19.1116H22.7589H24.6562L27.8339 11.7541C27.9921 11.3576 28.2796 10.9396 28.7448 10.9396H30.8605H30.8655H31.4672H31.4723H33.4642H33.588C34.0532 10.9396 34.3406 11.3576 34.4989 11.7541L37.6954 19.767C37.8861 20.2452 37.656 20.7947 37.1836 20.9879H37.1835C36.7113 21.1811 36.1689 20.9479 35.9781 20.4696L32.9722 12.9345H32.8556C33.041 13.1603 35.4228 22.0217 35.4228 22.1809C35.4228 22.6491 35.0458 23.0309 34.5835 23.0309H33.6136V30.5836C33.6136 31.2294 33.0919 31.7577 32.4543 31.7577H32.4541C31.8165 31.7577 31.2949 31.2294 31.2949 30.5836V23.0309H30.9141V30.5929C30.9141 31.2387 30.3923 31.767 29.7548 31.767H29.7545C29.117 31.767 28.5953 31.2387 28.5953 30.5929V23.0309H27.6325C27.1702 23.0309 26.7932 22.6491 26.7932 22.1809C26.7932 22.0346 28.8072 14.5305 29.2753 13.1483L26.3547 20.4696C26.3493 20.483 26.3437 20.496 26.3378 20.5091C26.2952 20.8465 25.9987 21.0551 25.6579 21.129L22.7589 21.7575V25.3549V25.8812V30.9536C22.7589 31.3841 22.4111 31.7363 21.986 31.7363H21.9858C21.5608 31.7363 21.213 31.3841 21.213 30.9536V25.8812H20.6574V30.9536C20.6574 31.3841 20.3097 31.7362 19.8845 31.7362H19.8844C19.4593 31.7362 19.1116 31.3841 19.1116 30.9536V25.8812V25.3549V21.723L16.0451 21.129C15.8685 21.0947 15.7043 21.021 15.5811 20.911C15.4215 20.8098 15.291 20.6588 15.2155 20.4696L12.4328 13.4942C12.4263 13.5739 12.4141 13.6521 12.3965 13.7282V30.4852C12.3965 31.2027 11.8169 31.7898 11.1084 31.7898H11.1083C10.3997 31.7898 9.82015 31.2027 9.82015 30.4852V21.5304H9.17862V30.4852C9.17862 31.2028 8.59903 31.7898 7.8905 31.7898ZM20.9471 16.0915C21.8176 16.0915 22.5235 16.8065 22.5235 17.688C22.5235 18.5698 21.8176 19.2846 20.9471 19.2846C20.0766 19.2846 19.3707 18.5698 19.3707 17.688C19.3707 16.8065 20.0766 16.0915 20.9471 16.0915ZM31.158 6.21021C32.2481 6.21021 33.1319 7.1053 33.1319 8.20938C33.1319 9.31346 32.2481 10.2086 31.158 10.2086C30.0678 10.2086 29.184 9.31346 29.184 8.20938C29.184 7.1053 30.0678 6.21021 31.158 6.21021ZM9.61428 6.21021C10.7044 6.21021 11.5882 7.1053 11.5882 8.20938C11.5882 9.31346 10.7044 10.2086 9.61428 10.2086C8.52414 10.2086 7.64034 9.31346 7.64034 8.20938C7.64034 7.1053 8.52414 6.21021 9.61428 6.21021Z" fill="#EF7F1A"/>
<path fill-rule="evenodd" clip-rule="evenodd" d="M76.2049 20.3221C76.7237 18.8447 80.4936 11.2306 81.5063 9.0648C81.6819 8.68931 82.0559 7.80117 82.3654 7.52459C82.4963 9.52514 82.777 11.8481 83.0133 13.8459C83.2621 15.9484 83.4004 18.11 83.5181 20.2827C83.9656 20.4063 85.1833 20.2195 85.7551 20.2191C86.53 20.2185 87.3132 20.3469 88.0446 20.3266C87.9932 19.0324 87.5237 16.9754 87.3576 15.5865C86.8406 11.2654 85.9698 5.05544 85.6689 1.05751C84.6102 1.12989 84.3047 1.13252 83.2442 1.04724C83.0253 1.83069 80.651 6.73162 80.1318 7.77011C79.5848 8.86445 79.0391 9.92552 78.4995 11.0456L76.9287 14.1184C76.721 14.357 77.0346 14.0868 76.7248 14.2943L73.5036 7.70383C72.8996 6.46631 70.7228 2.06157 70.4277 1.05335C69.3986 1.12094 69.2301 1.12452 68.1957 1.05619C67.9496 1.52027 66.4897 13.2715 66.0911 15.6843L65.2705 20.3051C65.6931 20.3282 66.123 20.218 66.5755 20.2199C67.0162 20.2219 67.4482 20.3489 67.8623 20.2911C68.2013 16.2749 68.2694 11.6376 69.0265 7.73326C69.1416 8.03931 69.5727 8.78802 69.7896 9.24736C70.0345 9.76597 70.2584 10.2423 70.5387 10.8037L75.0732 20.3257L76.2049 20.3221Z" fill="#007A8F"/>
<path fill-rule="evenodd" clip-rule="evenodd" d="M184.497 20.3471C185.299 20.3113 186.038 20.2222 186.851 20.2192C187.575 20.2164 188.472 20.3698 189.12 20.3169C189.056 18.2078 188.694 4.37741 189.002 3.37445C191.968 3.24932 194.517 3.31881 197.425 3.37192C197.404 6.22087 197.4 9.07056 197.378 11.9183C197.367 13.3236 197.419 14.7786 197.354 16.1739C197.29 17.5476 197.134 18.9603 197.108 20.3468C198.877 20.2638 200.008 20.2613 201.774 20.3464C201.711 17.1401 201.536 13.9392 201.546 10.6617C201.551 9.03582 201.581 7.44861 201.609 5.82923C201.637 4.22543 201.815 2.63869 201.862 1.03711C196.132 1.30673 190.336 1.28615 184.61 1.039C184.745 5.72374 184.965 10.9399 184.775 15.6738C184.713 17.2068 184.55 18.7928 184.497 20.3471Z" fill="#007A8F"/>
<path fill-rule="evenodd" clip-rule="evenodd" d="M148.494 1.04391C148.505 5.72538 148.753 10.9015 148.626 15.5912C148.584 17.1645 148.469 18.7507 148.455 20.3464C150.135 20.2575 151.152 20.2619 152.83 20.3479L152.67 11.6016C153.144 12.0311 155.012 15.1171 155.508 15.9047C155.955 16.6161 156.47 17.3579 156.892 18.0818C157.287 18.7599 158.024 19.727 158.271 20.3502C159.101 20.3169 159.856 20.2203 160.688 20.2193C161.488 20.2182 162.421 20.3705 163.158 20.3217C163.138 19.8093 162.624 19.2179 162.372 18.815C161.147 16.8502 159.052 14.005 157.738 11.9081C157.148 10.966 156.396 10.049 155.882 9.11537C157.211 7.60091 157.68 6.88626 159.337 5.13844C159.936 4.50707 160.568 3.82527 161.123 3.17711C161.534 2.69666 162.749 1.59369 162.874 1.0606C162.346 1.06628 161.897 1.17314 161.355 1.17509C159.223 1.18262 160.27 0.49682 158.972 2.15826C158.647 2.57464 158.429 2.88722 158.1 3.30487C157.515 4.04878 153.241 9.44053 152.688 9.89682L152.869 1.02112C151.152 1.13751 150.232 1.1394 148.494 1.04391Z" fill="#007A8F"/>
<path fill-rule="evenodd" clip-rule="evenodd" d="M114.721 18.3259C113.83 18.323 112.94 18.3134 112.049 18.2872C110.274 18.2351 110.102 18.4104 110.258 17.7622C110.552 16.5425 112.522 11.5678 113.102 10.0852C113.581 8.8625 114.178 7.56907 114.616 6.39772C115.006 6.75236 116.782 11.8407 116.912 12.2115C117.22 13.09 118.902 17.5774 118.847 18.2441L114.721 18.3259ZM106.433 18.3266C106.386 18.7997 106.518 19.4802 106.511 20.0368C106.504 20.5495 106.357 21.1827 106.454 21.6325C107.292 21.6143 107.001 20.6255 110.421 20.3201C112.101 20.17 113.867 20.1928 115.58 20.1916C117.501 20.1901 122.498 19.8979 123.913 21.1663C124.27 21.4862 124.168 21.6043 124.794 21.6252C124.756 21.0369 124.667 20.5583 124.66 19.9396C124.654 19.4081 124.793 18.7621 124.747 18.3219L123.686 18.2743C123.342 17.718 120.493 10.3251 120.228 9.62184C119.672 8.14775 119.122 6.72093 118.543 5.25253C117.977 3.81686 117.255 2.28776 116.808 0.894897C116.406 0.908163 116.105 1.00423 115.675 0.998441C115.278 0.992967 115.027 0.901162 114.642 0.908163C114.141 2.60819 111.976 7.86707 111.2 9.70627C110.585 11.1634 109.985 12.6275 109.393 14.0604C108.822 15.4411 108.103 16.9754 107.616 18.3248L106.433 18.3266Z" fill="#007A8F"/>
<path fill-rule="evenodd" clip-rule="evenodd" d="M127.873 4.86488C128.372 4.9023 128.301 4.72764 128.643 4.28936C128.869 3.99947 128.965 3.8765 129.249 3.64336C132.985 0.582895 138.837 2.83812 139.263 9.25177C136.274 9.28694 132.636 9.28388 129.692 9.08132C129.83 10.0671 129.809 10.3691 129.692 11.3494C131.313 11.1892 137.716 11.0564 139.272 11.1928C139.386 12.5379 138.756 14.6318 138.239 15.6583C137.597 16.9347 136.819 17.831 135.618 18.504C133.585 19.6421 131.061 19.2274 129.045 18.0753C128.779 17.923 128.483 17.7216 128.248 17.5318C127.914 17.2613 127.884 17.0167 127.491 17.1579C127.3 17.4455 127.464 17.9683 127.515 18.3512C127.568 18.7487 127.595 19.2173 127.738 19.5012C128.998 20.432 131.45 20.8927 133.408 20.8644C139.245 20.7799 143.813 17.2473 143.941 10.4687C144.029 5.80114 141.782 3.27493 138.835 1.78173C135.998 0.343907 130.236 0.128503 127.53 1.86658L127.873 4.86488Z" fill="#007A8F"/>
<path fill-rule="evenodd" clip-rule="evenodd" d="M227.171 2.64868C228.767 2.58872 229.479 2.5135 230.35 3.46287C231.011 4.18278 231.267 5.34272 231.24 6.60519C231.181 9.37803 229.816 10.4302 227.039 10.4333L227.171 2.64868ZM222.795 1.03862C222.953 6.01378 222.991 10.6394 222.955 15.5911C222.942 17.2222 222.755 18.753 222.714 20.3457C224.457 20.2565 225.551 20.2717 227.284 20.3468C227.215 17.6593 226.924 14.6701 227.051 12.0044C229.736 11.8942 231.814 12.0572 233.639 10.5607C236.859 7.9202 236.615 1.50091 230.792 1.05315C229.561 0.95845 228.186 1.0014 226.954 1.06557C225.526 1.14006 224.216 1.08352 222.795 1.03862Z" fill="#007A8F"/>
<path fill-rule="evenodd" clip-rule="evenodd" d="M207.293 20.346C209.081 20.3233 210.86 20.217 212.635 20.1953C214.469 20.1728 216.279 20.3739 218.073 20.346C217.98 19.3456 218 18.9279 218.058 17.9357C217.036 18.0068 212.213 18.5456 211.728 18.2287C211.459 17.6041 211.608 12.2674 211.656 11.2106C212.289 11.0196 216.786 11.3482 217.943 11.3842C217.826 10.3166 217.851 10.0587 217.958 9.03082L211.674 9.22848C211.656 8.94448 211.619 2.79777 211.848 3.21842L212.439 3.13456C212.722 3.1323 213.02 3.13882 213.304 3.14498C214.886 3.1792 216.801 3.4702 218.066 3.45709C217.989 2.48387 217.963 2.05475 218.071 1.06737C216.299 1.044 214.512 1.18097 212.731 1.19681C210.9 1.21313 209.183 1.06226 207.376 1.03552C207.371 2.67569 207.534 4.21143 207.541 5.82912C207.561 10.3508 207.573 15.9741 207.293 20.346Z" fill="#007A8F"/>
<path fill-rule="evenodd" clip-rule="evenodd" d="M92.2568 20.3483C94.0248 20.3039 95.8354 20.2145 97.6253 20.1949C99.4588 20.1747 101.237 20.34 103.014 20.3506C102.97 19.4358 102.903 18.8892 103.009 17.9476C101.444 18.0235 98.0078 18.5204 96.6238 18.2557L96.5979 11.1894C98.0315 10.9478 101.273 11.3653 102.904 11.3781C102.791 10.3171 102.817 10.0667 102.913 9.01493L96.6424 9.22865C96.5694 8.29207 96.5033 3.77747 96.7568 3.2089C97.6856 2.86021 101.713 3.43546 103.01 3.46357C102.94 2.52047 102.922 2.01296 103.012 1.06406C101.241 1.06864 99.4929 1.18093 97.7209 1.19661C95.8802 1.21288 94.1565 1.07675 92.3298 1.03369C92.321 2.66549 92.478 4.21844 92.4869 5.82918C92.512 10.3874 92.5008 15.907 92.2568 20.3483Z" fill="#007A8F"/>
<path fill-rule="evenodd" clip-rule="evenodd" d="M179.836 4.92751C179.988 4.56292 180.443 2.50015 180.478 2.05966C175.486 -0.840145 163.364 0.17271 163.774 11.7253C163.854 13.9765 164.647 15.8543 165.723 17.1459C166.924 18.5872 167.761 19.2911 170.022 20.1383C171.71 20.771 174.646 20.8565 176.526 20.5381C177.592 20.3576 178.434 20.1204 179.342 19.7185C179.919 19.4629 179.81 19.1953 179.981 18.5301C180.096 18.0835 180.362 17.4522 180.203 17.0679C179.764 16.9687 179.46 17.5007 178.476 18.065C176.249 19.3432 174.004 19.3581 171.795 18.243C167.425 16.0379 166.838 6.25173 172.03 3.12594C173.225 2.4063 175.126 2.22495 176.612 2.74609C179.029 3.59329 179.011 4.90603 179.836 4.92751Z" fill="#007A8F"/>
<path fill-rule="evenodd" clip-rule="evenodd" d="M237.912 3.48095C239.47 3.4191 241.478 2.99645 242.99 3.15468C243.35 8.90328 242.826 14.634 242.77 20.3486C243.538 20.3234 244.249 20.2223 245.019 20.2197C245.79 20.217 246.575 20.3499 247.304 20.3256C247.239 14.6022 247.069 8.96434 247.274 3.18306C248.256 2.91296 251.07 3.40694 252.158 3.47753L252.127 1.03296C249.776 1.05449 247.428 1.20299 245.019 1.20341C242.643 1.20383 240.295 1.04622 237.924 1.04354C237.998 2.0137 238.017 2.50573 237.912 3.48095Z" fill="#007A8F"/>
<path fill-rule="evenodd" clip-rule="evenodd" d="M76.9272 32.3692C76.8745 31.7395 77.2606 30.7855 77.5265 30.4036C78.3901 29.1633 80.1877 29.1217 80.9196 30.3208C81.2058 30.7896 81.4518 31.7045 81.3908 32.3667C80.1416 32.4888 78.1929 32.4636 76.9272 32.3692ZM82.7161 33.0508C82.9115 30.987 82.1003 29.2557 79.9432 28.9303C78.8898 28.7713 77.8078 29.0268 77.0954 29.5254C76.4211 29.9975 75.9508 30.5483 75.6628 31.5606C75.0223 33.8116 75.721 35.7443 77.0838 36.6817C77.7784 37.1595 78.8247 37.4529 79.882 37.3615C80.8526 37.2776 81.6626 36.7949 82.3161 36.3731L82.4011 35.5385C82.1754 35.5803 82.3109 35.5175 82.1373 35.6916C81.3051 36.5265 79.8275 36.9309 78.6023 36.423C77.322 35.8923 76.6884 34.371 76.8859 33.0668C78.9231 32.8974 81.1019 33.1576 82.7161 33.0508Z" fill="#EF7F1A"/>
<path fill-rule="evenodd" clip-rule="evenodd" d="M95.7958 33.2226C96.9102 33.1331 97.731 33.3201 98.0162 34.2327C98.3531 35.3103 97.811 36.1386 97.0407 36.409C96.5901 36.5671 96.0396 36.5629 95.516 36.5601C94.6926 36.5555 94.879 36.6742 94.8297 35.536C94.8066 35.0053 94.8043 34.4444 94.823 33.9006C94.8395 33.4166 94.7639 33.2757 94.9906 33.2526C95.245 33.2266 95.536 33.2435 95.7958 33.2226ZM94.9366 29.0741C94.3867 29.0989 94.0302 29.1106 93.4669 29.0674C93.4758 29.3761 93.5454 29.7213 93.5644 30.0468C93.6238 31.0691 93.5947 32.1105 93.5912 33.1411C93.5889 33.8197 93.5778 34.4978 93.5573 35.1744C93.5378 35.8223 93.4595 36.5391 93.4651 37.172C94.0488 37.1747 96.8568 37.1837 97.2315 37.1276C99.8022 36.7426 100.243 33.6995 98.3512 32.8747C97.2333 32.3873 96.0925 32.695 94.8518 32.5761C94.7265 32.0001 94.9306 29.8629 94.9366 29.0741Z" fill="#EF7F1A"/>
<path fill-rule="evenodd" clip-rule="evenodd" d="M73.4864 35.7084C73.2101 35.7408 72.7596 36.3979 71.9118 36.6408C70.6059 37.0148 69.1318 36.4434 68.4779 35.198C68.1722 34.6157 67.9829 33.9395 67.9696 33.1411C67.9567 32.3704 68.1296 31.6376 68.4149 31.065C69.3834 29.1216 71.7695 29.0516 72.7884 30.4369C73.0632 30.8105 72.9062 30.7372 73.1292 30.7704C73.2471 30.6609 73.2807 30.4661 73.3604 30.2336C73.4296 30.0319 73.4944 29.85 73.5554 29.6505C72.4368 28.7641 69.9455 28.7328 68.6108 29.4505C67.2905 30.1606 66.389 31.4481 66.5338 33.5832C66.5995 34.5498 66.8964 35.2369 67.339 35.8672C68.4978 37.5175 71.294 37.8113 72.9978 36.8145C73.1816 36.7069 73.3834 36.6419 73.4332 36.4536C73.4715 36.3091 73.5012 35.8592 73.4864 35.7084Z" fill="#EF7F1A"/>
<path fill-rule="evenodd" clip-rule="evenodd" d="M84.2213 29.9787C84.6588 29.9524 85.2349 29.8959 85.6869 29.8373C85.9073 29.8088 86.1602 29.802 86.4059 29.7898C86.5257 29.7839 86.6963 29.7804 86.7782 29.774C86.907 29.7641 86.9843 29.7568 87.1163 29.7702C87.3066 30.8907 87.079 35.9395 87.0671 37.1546C87.564 37.1392 88.058 37.1438 88.5013 37.1668C88.4993 36.5976 88.4208 35.9873 88.4096 35.3955C88.403 35.0463 88.3747 30.108 88.4282 29.8749C88.4497 29.7818 88.434 29.8424 88.4691 29.7921C88.7403 29.6496 90.8744 29.947 91.3623 29.9792L91.3525 29.0629C90.1613 29.1046 89.0091 29.1774 87.8025 29.1783C86.5834 29.1793 85.4054 29.0942 84.2153 29.0637L84.2213 29.9787Z" fill="#EF7F1A"/>
<path fill-rule="evenodd" clip-rule="evenodd" d="M125.282 37.3259C125.352 36.3479 125.378 35.4532 125.504 34.4847L125.885 31.8753C125.888 31.8581 125.896 31.8541 125.903 31.8444C126.012 32.0786 126.178 32.3158 126.312 32.5418C127.354 34.289 128.012 35.3439 128.897 37.3407L129.351 37.3305L130.064 35.8873C130.393 35.2393 132.109 31.979 132.38 31.8686C132.473 32.7725 132.589 33.6334 132.674 34.5447C132.716 34.9918 132.755 35.4535 132.772 35.9188C132.814 37.0822 132.681 37.3152 133.015 37.3318L133.541 37.2954C133.794 37.2933 134.037 37.3251 134.294 37.3399C134.294 36.802 134.113 35.8968 134.036 35.3312C133.852 33.986 133.672 32.6488 133.558 31.2979C133.503 30.6513 133.476 29.8572 133.378 29.2222L132.861 29.2225C132.527 29.8874 129.98 35.0889 129.525 35.5561L128.569 34.0551C128.263 33.5332 127.985 33.0344 127.681 32.4834C127.381 31.9413 127.108 31.4315 126.834 30.8634C126.601 30.3804 126.291 29.6424 126.022 29.219L125.61 29.2285C125.466 29.2589 125.609 29.1947 125.526 29.2663C125.51 29.2847 124.906 34.4671 124.753 35.3676L124.414 37.3192L125.282 37.3259Z" fill="#EF7F1A"/>
<path fill-rule="evenodd" clip-rule="evenodd" d="M146.51 29.2409C146.53 29.9062 146.637 30.5056 146.637 31.233C146.637 31.9252 146.632 32.6181 146.631 33.3105C146.628 34.6943 146.524 36.0282 146.503 37.396L147.267 37.386C147.393 37.1188 147.637 36.8289 147.819 36.5727C148.255 35.9613 149.782 33.9622 150.206 33.5116L152.033 31.3503C152.203 33.0691 151.94 35.5746 151.941 37.3262C152.439 37.3393 152.86 37.2984 153.386 37.3381C153.411 36.7569 153.303 35.9706 153.291 35.3438C153.278 34.652 153.273 33.9581 153.273 33.2662C153.273 32.5888 153.274 31.8884 153.307 31.2131C153.332 30.6754 153.426 29.6688 153.384 29.1965L152.668 29.2017C152.421 29.6369 150.679 31.8899 150.363 32.2964L148.514 34.5357C148.383 34.6877 148.326 34.7645 148.213 34.895C148.081 35.0469 148.038 35.1601 147.861 35.2353C147.836 34.2165 147.84 33.1806 147.854 32.1612C147.867 31.1918 147.958 30.1826 147.954 29.2418C147.415 29.2801 147.045 29.2696 146.51 29.2409Z" fill="#EF7F1A"/>
<path fill-rule="evenodd" clip-rule="evenodd" d="M156.638 31.1444C156.639 33.3093 156.58 35.0755 156.517 37.3304C157.029 37.319 157.416 37.296 157.95 37.3394C157.956 36.8758 157.889 36.2889 157.866 35.8217L157.853 33.4003C159.75 33.3467 160.174 33.3519 162.047 33.3982C162.125 34.7226 161.917 36.2617 161.952 37.3331L163.394 37.3167C163.387 36.7048 163.3 36.0761 163.291 35.4322C163.259 33.0138 163.311 31.7966 163.385 29.2409C162.62 29.2981 162.728 29.2879 161.952 29.2464C162.088 30.9777 162.067 30.7468 162.055 32.3379L162.051 32.6918C160.048 32.7593 159.866 32.747 157.854 32.7027L157.951 29.2368C157.403 29.3042 157.037 29.2482 156.506 29.2451C156.543 29.8882 156.638 30.4591 156.638 31.1444Z" fill="#EF7F1A"/>
<path fill-rule="evenodd" clip-rule="evenodd" d="M116.676 32.5385C116.624 31.9088 117.01 30.9549 117.276 30.573C118.139 29.3327 119.937 29.2911 120.669 30.4902C120.955 30.9589 121.201 31.8739 121.14 32.536C119.89 32.6583 117.94 32.6329 116.676 32.5385ZM122.155 35.6999C121.822 35.7447 120.507 37.4526 118.414 36.6182C117.767 36.3601 117.364 35.9637 117.038 35.402C116.811 35.0101 116.443 33.7722 116.652 33.2497C117.286 33.0687 121.422 33.2892 122.465 33.2202C122.643 32.1776 122.298 30.9982 121.836 30.3242C121.389 29.6729 120.622 29.1747 119.5 29.0765C117.364 28.8893 115.82 29.9712 115.318 32.083C114.754 34.4612 115.762 36.3238 117.238 37.1011C118.029 37.5177 119.292 37.6707 120.233 37.414C120.635 37.3044 121.928 36.7812 122.052 36.5154C122.092 36.4301 122.152 35.8275 122.155 35.6999Z" fill="#EF7F1A"/>
<path fill-rule="evenodd" clip-rule="evenodd" d="M138.032 32.5426C137.967 31.8813 138.372 30.9831 138.636 30.5716C139.428 29.3364 141.343 29.3053 142.032 30.485C142.227 30.8192 142.631 32.0537 142.479 32.5185C142.077 32.6689 138.715 32.5662 138.032 32.5426ZM143.51 35.7052C143.177 35.7314 141.882 37.4594 139.772 36.6202C139.141 36.3692 138.7 35.9521 138.396 35.408C138.233 35.1155 138.132 34.8242 138.058 34.4641C138.004 34.2027 137.888 33.5131 138.012 33.2504C138.303 33.164 140.435 33.1791 140.903 33.1854C141.839 33.198 142.899 33.2652 143.821 33.2225C144.019 30.9167 142.964 29.2622 140.86 29.0766C139.741 28.9781 138.685 29.3174 138.018 29.814C136.102 31.2398 135.742 35.5753 138.596 37.1028C139.907 37.8041 141.586 37.6165 142.866 36.8902C143.43 36.5701 143.487 36.6226 143.51 35.7052Z" fill="#EF7F1A"/>
<path fill-rule="evenodd" clip-rule="evenodd" d="M168.163 33.4658C168.551 33.3151 170.021 33.3444 170.42 33.4789C171.002 33.6757 171.391 34.2178 171.402 34.9909C171.426 36.7358 169.76 36.8291 168.171 36.6893C168.145 36.0233 168.011 33.9804 168.163 33.4658ZM168.143 32.7381C168.023 31.6328 168.247 30.3459 168.229 29.2445C167.683 29.2747 167.313 29.2812 166.772 29.2379C166.781 29.8841 166.896 30.5271 166.896 31.2329C166.896 32.5537 166.903 34.0402 166.852 35.3464C166.827 35.9719 166.749 36.7403 166.77 37.3421C167.424 37.3377 168.051 37.3171 168.71 37.3273C169.324 37.3366 169.979 37.3818 170.579 37.2886C172.951 36.9196 173.656 33.9523 171.637 33.0361C170.612 32.571 169.326 32.8352 168.143 32.7381Z" fill="#EF7F1A"/>
<path fill-rule="evenodd" clip-rule="evenodd" d="M177.863 29.245C178 29.4011 178.09 29.6055 178.24 29.7897L180.852 33.3547C180.615 33.6967 180.374 33.9863 180.102 34.3437C179.854 34.6705 179.626 34.9699 179.34 35.3396C179.079 35.6765 178.818 35.9851 178.564 36.32C178.413 36.5193 177.848 37.1111 177.833 37.3134L178.865 37.3308L180.655 34.7273C180.827 34.4897 181.06 34.1083 181.265 33.8987C181.398 34.0001 182.791 36.0309 183.061 36.4445C183.257 36.7458 183.408 37.0327 183.622 37.3269C184.13 37.3404 184.687 37.3117 185.232 37.3246C185.195 37.0988 185.176 37.1052 185.05 36.9493C184.78 36.6148 182.163 33.0236 182.107 32.8684C182.357 32.5729 182.604 32.2638 182.846 31.9507C183.111 31.6089 185.011 29.4724 185.147 29.2493C184.698 29.2778 184.44 29.2539 184.008 29.2374C183.861 29.5232 181.897 32.1933 181.701 32.3506C181.602 32.275 181.612 32.2696 181.533 32.1542L179.57 29.2386C178.965 29.2474 178.478 29.2645 177.863 29.245Z" fill="#EF7F1A"/>
<path fill-rule="evenodd" clip-rule="evenodd" d="M113.321 35.8777C113.041 35.9106 112.6 36.5667 111.746 36.8101C110.437 37.1834 108.97 36.6144 108.313 35.3674C108.007 34.787 107.818 34.1072 107.804 33.3105C107.781 31.9095 108.3 30.5661 109.501 29.939C110.071 29.6412 110.881 29.5694 111.537 29.8043C111.862 29.921 112.152 30.1029 112.333 30.2799C112.442 30.3871 112.532 30.4817 112.624 30.6057C112.854 30.9167 112.743 30.9068 112.964 30.9397C113.109 30.8051 113.333 30.0054 113.39 29.8198C111.69 28.4725 106.023 28.6335 106.369 33.7533C106.494 35.6029 107.528 36.8584 109.008 37.316C110.245 37.6988 111.702 37.6463 112.833 36.9836C113.023 36.872 113.211 36.8125 113.266 36.6207C113.306 36.4813 113.336 36.0254 113.321 35.8777Z" fill="#EF7F1A"/>
<path fill-rule="evenodd" clip-rule="evenodd" d="M173.727 37.3329L175.174 37.3169C175.087 35.576 175.058 34.7598 175.084 33.001L175.163 29.2362C174.38 29.3005 174.522 29.2898 173.727 29.2459C173.761 29.9005 173.856 30.4749 173.847 31.1887L173.801 35.2996C173.791 35.9593 173.711 36.6996 173.727 37.3329Z" fill="#EF7F1A"/>
<path fill-rule="evenodd" clip-rule="evenodd" d="M147.441 26.6801C148.048 28.367 150.334 28.9145 151.66 27.8649C151.898 27.6761 152.53 27.0653 152.599 26.6358L152.239 26.3812C152.118 26.5056 151.998 26.7024 151.869 26.8384C151.415 27.3164 150.772 27.5556 150.054 27.5628C149.137 27.572 148.239 27.1236 147.826 26.3818C147.677 26.4518 147.524 26.5531 147.441 26.6801Z" fill="#EF7F1A"/>
<path fill-rule="evenodd" clip-rule="evenodd" d="M212.28 29.0572C211.756 29.0772 211.361 29.0664 210.843 29.0565C210.832 29.2755 210.911 29.7154 210.932 29.9678C211.019 30.9797 210.957 34.1115 210.925 35.2182C210.906 35.858 210.824 36.5917 210.834 37.2067L211.578 37.2075L212.696 35.6596C212.946 35.3023 216.018 31.4085 216.372 31.2623C216.425 33.2482 216.327 35.1799 216.285 37.1453C216.799 37.1145 217.212 37.1015 217.715 37.1564C217.761 36.7005 217.635 35.7173 217.624 35.174C217.597 33.889 217.59 32.2956 217.637 31.0181C217.661 30.3754 217.735 29.6565 217.728 29.0138L216.995 29.0174L215.856 30.5935C215.437 31.1145 215.085 31.6265 214.679 32.1413C214.274 32.6538 213.856 33.1431 213.45 33.638C213.27 33.8574 212.325 35.0023 212.194 35.074C212.16 34.059 212.174 33.0083 212.186 31.9914L212.28 29.0572Z" fill="#EF7F1A"/>
<path fill-rule="evenodd" clip-rule="evenodd" d="M231.012 37.2006L231.756 37.2105C232.079 36.6714 232.503 36.169 232.872 35.6498C233.284 35.0685 236.195 31.3946 236.547 31.2687C236.574 32.3388 236.583 34.6097 236.517 35.7068C236.496 36.0611 236.427 36.8047 236.466 37.1508C236.987 37.1111 237.37 37.1101 237.894 37.1553C237.928 36.6274 237.803 35.808 237.797 35.2182C237.783 33.8775 237.753 32.3549 237.803 31.0252C237.827 30.3809 237.905 29.6742 237.904 29.0173C236.973 29.0151 237.299 28.8549 236.616 29.8063L234.855 32.1334C234.657 32.3826 234.446 32.6298 234.245 32.886C234.032 33.1588 233.825 33.3649 233.627 33.6295C233.463 33.8485 232.526 34.9928 232.37 35.0814C232.327 34.0723 232.347 33.0041 232.36 31.9914C232.366 31.4814 232.382 30.993 232.399 30.4885C232.415 30.0279 232.485 29.4941 232.46 29.0611C231.967 29.0582 231.547 29.0854 231.023 29.0546L231.146 30.9748C231.148 31.6813 231.14 32.3896 231.138 33.0964C231.137 33.793 231.122 34.487 231.1 35.1722C231.079 35.8126 230.995 36.5953 231.012 37.2006Z" fill="#EF7F1A"/>
<path fill-rule="evenodd" clip-rule="evenodd" d="M220.921 37.1396C221.45 37.1351 221.833 37.1105 222.366 37.1553C222.397 36.6372 222.285 35.8276 222.276 35.2625C222.267 34.5805 222.268 33.8971 222.267 33.215C223.203 33.1976 225.68 33.0918 226.477 33.2289C226.473 33.8991 226.462 34.5534 226.447 35.2181C226.434 35.819 226.341 36.592 226.365 37.145C226.594 37.1461 226.84 37.1125 227.088 37.1134C227.334 37.1142 227.581 37.1487 227.812 37.1464C227.829 36.5815 227.724 35.8357 227.711 35.2181C227.687 34.0283 227.667 32.1965 227.725 31.0333C227.749 30.5674 227.854 29.4534 227.807 29.0568C227.286 29.0799 226.928 29.1062 226.372 29.0574C226.417 30.1671 226.576 31.26 226.467 32.5068C225.236 32.6603 223.547 32.5547 222.282 32.5157C222.217 31.8993 222.376 29.8647 222.377 29.0586C221.853 29.1128 221.448 29.0971 220.946 29.0535L221.058 30.9747C221.065 33.1548 221.012 34.9625 220.921 37.1396Z" fill="#EF7F1A"/>
<path fill-rule="evenodd" clip-rule="evenodd" d="M241.229 37.1399C241.714 37.1196 242.185 37.1616 242.622 37.1451C242.665 36.5351 242.564 35.7346 242.552 35.0856C242.545 34.7359 242.561 34.3768 242.561 34.0248C242.562 33.847 242.561 33.6717 242.556 33.4939C242.541 32.8731 242.712 32.7483 243.211 33.3195L245.045 35.4845C245.424 35.9468 246.05 36.5458 246.404 37.1538C247.007 37.1309 247.546 37.1526 248.126 37.146C248.126 36.8389 246.147 34.7268 245.682 34.2189L244.182 32.4304L246.481 30.3511C246.728 30.153 247.857 29.3264 247.874 29.0829L246.524 29.0904L244.771 30.9611C242.457 33.3651 242.533 32.9821 242.563 30.8863C242.571 30.2687 242.648 29.6742 242.651 29.064C242.133 29.0989 241.683 29.0442 241.235 29.0607C241.238 29.5046 241.366 30.0268 241.354 30.9748C241.345 31.6681 241.329 32.3584 241.327 33.0523C241.322 34.4269 241.264 35.7702 241.229 37.1399Z" fill="#EF7F1A"/>
<path fill-rule="evenodd" clip-rule="evenodd" d="M192.581 37.1406C192.829 37.1285 193.051 37.1102 193.303 37.1124C193.526 37.1144 193.767 37.1576 193.976 37.1422C194.037 36.2431 193.767 34.0744 193.943 32.995C194.287 32.897 194.382 33.1282 194.545 33.2995C195.055 33.8361 196.337 35.3752 196.879 36.0167C197.134 36.318 197.56 36.8297 197.758 37.1547C198.052 37.1404 198.323 37.1139 198.628 37.1133C198.905 37.1128 199.231 37.1537 199.48 37.1437C199.479 36.8825 197.802 35.0756 197.53 34.7826L195.535 32.4275C196.114 31.7888 198.019 30.1975 198.799 29.5568C198.942 29.4389 199.212 29.2876 199.228 29.0843L197.878 29.0903L196.124 30.9581C195.812 31.282 194.695 32.6143 194.093 32.5983C193.709 32.4367 193.999 29.6626 194.004 29.0654C193.476 29.0941 193.07 29.0569 192.589 29.0583C192.589 29.191 192.614 29.3147 192.633 29.4539C192.65 29.5738 192.662 29.7786 192.673 29.9565C192.778 31.6997 192.624 35.3837 192.581 37.1406Z" fill="#EF7F1A"/>
<path fill-rule="evenodd" clip-rule="evenodd" d="M200.824 37.1415L201.878 37.131C202.094 36.4606 204.005 31.3926 204.438 30.7793C204.744 31.1994 204.555 30.8736 204.814 31.4542C205.4 32.771 205.926 34.1094 206.448 35.4593C206.665 36.0211 206.799 36.6296 206.996 37.1586C207.574 37.128 207.986 37.1406 208.551 37.1516C208.521 36.9724 208.231 36.4015 208.135 36.189L205.567 30.082C205.467 29.8166 205.287 29.2662 205.16 29.0476L204.337 29.0443C203.582 30.9983 202.643 33.2318 201.768 35.1378C201.614 35.472 201.471 35.7989 201.31 36.1318C201.178 36.4043 200.895 36.8913 200.824 37.1415Z" fill="#EF7F1A"/>
<path d="M255.633 3.01279V1.2616H256.368C256.553 1.2616 256.687 1.27749 256.771 1.30892C256.855 1.34029 256.922 1.39615 256.972 1.47642C257.023 1.55712 257.048 1.64882 257.048 1.75242C257.048 1.88407 257.01 1.99246 256.934 2.07805C256.858 2.16375 256.744 2.21749 256.593 2.23992C256.668 2.28435 256.73 2.33325 256.779 2.38663C256.828 2.44006 256.894 2.53502 256.977 2.67125L257.188 3.01279H256.771L256.52 2.63046C256.431 2.4947 256.369 2.40911 256.336 2.37363C256.303 2.33857 256.268 2.31409 256.23 2.30109C256.193 2.28803 256.134 2.28151 256.054 2.28151H255.983V3.01279H255.633ZM255.983 2.00267H256.241C256.409 2.00267 256.513 1.99535 256.555 1.98109C256.596 1.96682 256.629 1.94192 256.653 1.90686C256.676 1.8718 256.688 1.8278 256.688 1.77521C256.688 1.71615 256.672 1.66882 256.641 1.63213C256.61 1.59586 256.567 1.57307 256.51 1.56365C256.482 1.55959 256.397 1.55759 256.255 1.55759H255.983V2.00267Z" fill="#007A8F"/>
<path fill-rule="evenodd" clip-rule="evenodd" d="M256.411 0.77959C255.673 0.77959 255.072 1.38578 255.072 2.1371C255.072 2.88841 255.673 3.49455 256.411 3.49455C257.148 3.49455 257.749 2.88841 257.749 2.1371C257.749 1.38578 257.148 0.77959 256.411 0.77959ZM254.871 2.1371C254.871 1.27846 255.559 0.57959 256.411 0.57959C257.262 0.57959 257.95 1.27846 257.95 2.1371C257.95 2.99574 257.262 3.69455 256.411 3.69455C255.559 3.69455 254.871 2.99574 254.871 2.1371Z" fill="#007A8F"/>
</g>
<defs>
<filter id="filter0_d_1833_11614" x="-5.68555" y="-2.22461" width="53.876" height="46.4493" filterUnits="userSpaceOnUse" color-interpolation-filters="sRGB">
<feFlood flood-opacity="0" result="BackgroundImageFix"/>
<feColorMatrix in="SourceAlpha" type="matrix" values="0 0 0 0 0 0 0 0 0 0 0 0 0 0 0 0 0 0 127 0" result="hardAlpha"/>
<feOffset dy="2"/>
<feGaussianBlur stdDeviation="5"/>
<feComposite in2="hardAlpha" operator="out"/>
<feColorMatrix type="matrix" values="0 0 0 0 0 0 0 0 0 0 0 0 0 0 0 0 0 0 0.3 0"/>
<feBlend mode="normal" in2="BackgroundImageFix" result="effect1_dropShadow_1833_11614"/>
<feBlend mode="normal" in="SourceGraphic" in2="effect1_dropShadow_1833_11614" result="shape"/>
</filter>
<clipPath id="clip0_1833_11614">
<rect width="258" height="38" fill="white"/>
</clipPath>
</defs>
</svg>
