<svg width="34" height="32" viewBox="0 0 34 32" fill="none" xmlns="http://www.w3.org/2000/svg">
<path fill-rule="evenodd" clip-rule="evenodd" d="M8.11196 6.03089C6.89823 7.25945 6.89842 9.25894 8.09734 10.487C8.09745 10.4871 8.09724 10.4869 8.09734 10.487L19.4941 22.1183C19.4943 22.1185 19.4938 22.118 19.4941 22.1183C20.706 23.3431 22.675 23.3435 23.8865 22.1338C25.097 20.925 25.1005 18.9088 23.9002 17.6791M23.9002 17.6791L12.5032 6.04758C12.503 6.04731 12.5027 6.04703 12.5024 6.04676C11.2908 4.82245 9.32343 4.82234 8.11196 6.03089M7.40424 5.32439C9.00706 3.72385 11.6117 3.72389 13.2143 5.34443L13.2159 5.34607L24.6145 16.9793C26.193 18.5956 26.1968 21.24 24.5931 22.8415C22.9902 24.442 20.3856 24.442 18.783 22.8214L18.7814 22.8198L7.3828 11.1866C5.80311 9.56897 5.80249 6.9441 7.40202 5.32662L7.40424 5.32439Z" fill="white"/>
<path fill-rule="evenodd" clip-rule="evenodd" d="M2.83338 0.643141C3.03047 0.449722 3.34703 0.452696 3.54045 0.649784L8.13153 5.32795C8.32495 5.52503 8.32197 5.8416 8.12488 6.03502C7.9278 6.22844 7.61123 6.22547 7.41781 6.02838L2.82673 1.35022C2.63332 1.15313 2.63629 0.83656 2.83338 0.643141Z" fill="white"/>
<path fill-rule="evenodd" clip-rule="evenodd" d="M22.5181 24.2021C22.3247 24.0049 22.326 23.6866 22.521 23.491L25.2811 20.7228C25.4761 20.5272 25.7909 20.5285 25.9842 20.7257L28.9324 23.7314C29.1257 23.9286 29.1244 24.2469 28.9295 24.4425L26.1694 27.2107C25.9744 27.4063 25.6596 27.405 25.4662 27.2078L22.5181 24.2021ZM23.5743 23.8509L25.8222 26.1427L27.8762 24.0826L25.6283 21.7908L23.5743 23.8509Z" fill="white"/>
<path fill-rule="evenodd" clip-rule="evenodd" d="M25.5328 29.116C25.5208 29.3338 25.5743 29.4168 25.6031 29.4462C25.6319 29.4755 25.7135 29.5303 25.929 29.5199C26.1444 29.5096 26.4364 29.4345 26.7917 29.2754C27.4992 28.9586 28.3595 28.3535 29.1865 27.5241C30.0136 26.6946 30.6189 25.8296 30.938 25.1169C31.0982 24.7588 31.1749 24.4642 31.1869 24.2465C31.1989 24.0287 31.1454 23.9457 31.1166 23.9163C31.0878 23.887 31.0062 23.8322 30.7907 23.8426C30.5753 23.8529 30.2834 23.928 29.928 24.0871C29.2205 24.4039 28.3602 25.0089 27.5332 25.8384C26.7061 26.6679 26.1008 27.5329 25.7817 28.2456C25.6215 28.6037 25.5448 28.8983 25.5328 29.116ZM24.8758 27.8311C25.2564 26.9807 25.9425 26.0176 26.8329 25.1245C27.7234 24.2314 28.6814 23.5455 29.5254 23.1677C29.9458 22.9795 30.3628 22.8564 30.7437 22.8381C31.1246 22.8199 31.5265 22.9062 31.8227 23.2082C32.1188 23.5101 32.2009 23.9173 32.1798 24.3022C32.1586 24.6873 32.0334 25.108 31.8439 25.5314C31.4633 26.3818 30.7772 27.3449 29.8868 28.238C28.9963 29.1311 28.0383 29.8169 27.1943 30.1948C26.7739 30.383 26.3569 30.5061 25.976 30.5244C25.5952 30.5426 25.1932 30.4563 24.897 30.1543C24.6009 29.8524 24.5188 29.4452 24.5399 29.0603C24.5611 28.6752 24.6863 28.2545 24.8758 27.8311Z" fill="white"/>
<path fill-rule="evenodd" clip-rule="evenodd" d="M20.0552 20.2669C20.2501 20.4626 20.2495 20.7791 20.0539 20.974L18.8578 22.1658C18.6622 22.3607 18.3456 22.3601 18.1507 22.1645C17.9558 21.9689 17.9564 21.6523 18.152 21.4574L19.3481 20.2656C19.5437 20.0707 19.8603 20.0713 20.0552 20.2669Z" fill="white"/>
<path fill-rule="evenodd" clip-rule="evenodd" d="M11.3983 11.4239C11.5946 11.618 11.5964 11.9346 11.4022 12.1309L10.2061 13.3405C10.0119 13.5369 9.69536 13.5386 9.49901 13.3444C9.30266 13.1503 9.3009 12.8337 9.49507 12.6374L10.6912 11.4278C10.8854 11.2314 11.2019 11.2297 11.3983 11.4239Z" fill="white"/>
<path fill-rule="evenodd" clip-rule="evenodd" d="M15.409 15.515C15.6054 15.7092 15.6072 16.0258 15.413 16.2221L14.2168 17.4317C14.0227 17.628 13.7061 17.6298 13.5098 17.4356C13.3134 17.2414 13.3116 16.9249 13.5058 16.7285L14.7019 15.519C14.8961 15.3226 15.2127 15.3208 15.409 15.515Z" fill="white"/>
<path fill-rule="evenodd" clip-rule="evenodd" d="M19.3334 16.2999C19.5285 16.4953 19.5282 16.8119 19.3328 17.007L16.5359 19.7997C16.3405 19.9948 16.0239 19.9946 15.8288 19.7992C15.6337 19.6037 15.6339 19.2872 15.8293 19.092L18.6263 16.2994C18.8217 16.1043 19.1383 16.1045 19.3334 16.2999Z" fill="white"/>
<path fill-rule="evenodd" clip-rule="evenodd" d="M15.005 11.8697C15.2008 12.0645 15.2015 12.381 15.0067 12.5768L12.2099 15.3872C12.0151 15.583 11.6985 15.5837 11.5028 15.389C11.307 15.1942 11.3063 14.8776 11.5011 14.6818L14.2979 11.8714C14.4927 11.6756 14.8093 11.6749 15.005 11.8697Z" fill="white"/>
<path d="M3.50079 11.1034C4.15164 11.1034 4.66177 10.5697 4.66177 9.91157C4.66177 9.68033 4.60898 9.50246 4.53862 9.3068L4.609 9.55582C4.59141 9.46689 4.55625 9.37795 4.52107 9.25344C4.52107 9.25344 3.6767 7.01216 3.44802 7.01216C3.21935 7.01216 2.4278 9.28902 2.4278 9.28902C2.37503 9.48468 2.32227 9.68033 2.32227 9.91157C2.32227 10.5697 2.84995 11.1034 3.50079 11.1034C3.72947 11.1034 3.95814 11.0322 4.15163 10.9077L3.50079 11.1034Z" fill="white"/>
<path d="M1.17853 7.47463C1.81178 7.47463 2.3395 6.94098 2.3395 6.26505C2.3395 6.03381 2.28672 5.85595 2.21636 5.64249L2.28673 5.89152C2.26914 5.80258 2.23398 5.69586 2.1988 5.58913C2.1988 5.58913 1.35443 3.33008 1.12576 3.33008C0.897084 3.33008 0.105538 5.64249 0.105538 5.64249C0.052767 5.85595 0 6.03381 0 6.26505C0.0175904 6.92319 0.527683 7.47463 1.17853 7.47463C1.4072 7.47463 1.63591 7.40348 1.81181 7.27896L1.17853 7.47463Z" fill="white"/>
</svg>
