<svg width="34" height="36" viewBox="0 0 34 36" fill="none" xmlns="http://www.w3.org/2000/svg">
<path fill-rule="evenodd" clip-rule="evenodd" d="M22.2184 0.0208035C21.4875 0.103903 20.8001 0.396228 20.1304 0.908767L19.7206 1.2225L19.2547 1.00327C18.0373 0.430454 16.6834 0.457778 15.0625 1.08778L14.5135 1.30116L13.9808 0.949964C13.2807 0.488271 12.7057 0.296087 11.8809 0.247988C10.8614 0.188551 10.0695 0.394256 9.1999 0.94433L8.85967 1.15954L8.27106 1.01236C6.67196 0.612427 5.4281 0.848485 4.31346 1.76349C3.63385 2.32138 2.84437 3.60385 2.61178 4.52795C2.58157 4.64795 2.43413 4.78569 2.1679 4.94274C1.2137 5.50542 0.469293 6.56979 0.28771 7.63099C0.132915 8.53558 0.307069 9.60439 0.799099 10.7695L1.01361 11.2776L0.829958 11.5441C0.549798 11.9505 0.609945 12.3481 0.972039 12.4838C1.24784 12.5872 1.45614 12.46 1.80238 11.9772C2.24812 11.3555 2.25376 11.326 2.0141 10.8697C1.45685 9.80882 1.19827 8.61079 1.35056 7.79578C1.52264 6.87514 1.96617 6.29084 2.92637 5.71985L3.45641 5.40464L3.64478 4.80605C4.3066 2.70336 5.66233 1.65793 7.39129 1.91701C7.66924 1.95863 8.1437 2.073 8.44557 2.17117C9.06525 2.37272 9.09211 2.36666 9.69808 1.88722C10.3706 1.35511 11.5523 1.14342 12.4755 1.38983C12.9718 1.52222 13.6255 1.90497 13.964 2.26124C14.2406 2.55237 14.4214 2.54399 15.1551 2.2061C16.0059 1.81434 16.5622 1.6811 17.3616 1.67786C18.1866 1.67448 18.7237 1.82715 19.2448 2.21314C19.4445 2.3611 19.68 2.48209 19.7681 2.48209C19.8651 2.48209 20.1341 2.29948 20.4487 2.02011C20.7348 1.76603 21.1774 1.45701 21.4321 1.33349C21.8688 1.12166 21.9403 1.10891 22.6822 1.11046C23.3703 1.1118 23.5246 1.13532 23.911 1.29729C24.4256 1.51314 24.9933 1.87258 25.4621 2.27941C25.8614 2.62582 25.9754 2.62279 26.836 2.24293C27.754 1.83772 28.4661 1.68743 29.32 1.71856C30.4862 1.76117 31.0193 2.09427 31.5336 3.10167C32.2512 4.50745 32.3396 6.0781 31.7853 7.57839C31.5557 8.19973 31.5579 8.21156 31.9985 8.74177C32.1398 8.91171 32.4167 9.37058 32.614 9.76157C33.0088 10.5442 33.1679 10.6862 33.5158 10.5666C33.7405 10.4894 33.8626 10.3219 33.8626 10.091C33.8626 9.83713 33.5245 9.1103 33.1457 8.54973L32.7811 8.01029L32.9257 7.51733C33.358 6.0426 33.3205 4.74048 32.8054 3.35308C32.5471 2.65709 32.1009 1.89103 31.7792 1.59117C30.5488 0.444539 28.592 0.321157 26.4498 1.25518L26.0517 1.42877L25.8676 1.26159C24.9287 0.408834 23.3944 -0.112859 22.2184 0.0208035ZM7.23321 6.02253C7.09663 6.16591 7.08177 6.25641 7.09135 6.88521C7.10599 7.8424 6.97241 8.22395 6.44009 8.74487C6.21972 8.96058 5.93463 9.19121 5.80662 9.25741C5.37231 9.48185 5.37445 9.65889 5.82212 10.5404C6.30544 11.4921 6.50374 12.22 6.50374 13.042C6.50374 13.783 6.37166 14.3248 6.02428 15.0089C5.87913 15.2948 5.76519 15.5915 5.77105 15.6682C5.78719 15.8794 5.97285 16.0425 6.30844 16.1401C7.87054 16.5948 8.95125 18.1389 9.05632 20.0664C9.11533 21.1495 8.98211 21.6635 8.41193 22.5526C8.2747 22.7667 8.25385 22.8966 8.25385 23.5386C8.25385 23.9453 8.29914 24.69 8.35457 25.1935C8.472 26.2616 8.42686 26.7195 8.17991 26.9629C7.87718 27.2614 7.18442 27.1201 6.97277 26.7166C6.81561 26.417 6.82876 25.4526 7.00377 24.4541C7.17535 23.4748 7.18021 23.2434 7.03477 22.9662C6.87712 22.6657 6.5451 22.5421 6.142 22.6338C5.31259 22.8227 4.32339 22.5645 3.69749 21.9957C2.65857 21.0516 2.33748 18.857 3.13603 18.1579C3.24211 18.065 3.28925 17.9411 3.28925 17.7552C3.28925 17.5128 3.25268 17.46 2.91409 17.2134C2.49742 16.9099 1.79473 16.1888 1.60151 15.8663C1.42542 15.5724 1.11262 15.4535 0.869532 15.588C0.767383 15.6445 0.652376 15.7789 0.613945 15.8867C0.51351 16.1682 0.767169 16.6009 1.44857 17.3106L2.00296 17.888L1.86524 18.1956C1.2622 19.543 1.73337 21.5223 2.93852 22.7037C3.66571 23.4166 4.4954 23.7498 5.54289 23.7498C6.07771 23.7498 6.049 23.6735 5.88877 24.6709C5.7204 25.7191 5.77341 26.6993 6.02457 27.1786C6.3208 27.7442 6.88912 28.1064 7.57638 28.1678C8.32121 28.2344 8.96539 27.8769 9.26569 27.2302C9.50828 26.7077 9.54428 26.0548 9.40063 24.7803C9.3357 24.2044 9.29698 23.7191 9.31448 23.7019C9.33198 23.6845 9.56407 23.8174 9.83016 23.9969C11.053 24.8223 12.8589 25.44 14.0493 25.44C14.2209 25.44 14.3614 25.4691 14.3614 25.5048C14.3614 25.5405 14.2899 25.8495 14.2027 26.1915C13.9748 27.0845 13.9768 29.0434 14.2068 30.264C14.4987 31.8129 15.0223 33.526 15.6599 35.0175C16.0545 35.9406 16.0733 35.9555 16.878 35.9896C17.8203 36.0296 17.969 35.9759 18.41 35.4375C19.3479 34.2923 20.0034 32.409 20.0043 30.8567C20.0044 30.6017 20.0223 30.3756 20.0439 30.3542C20.0656 30.3329 20.2458 30.3763 20.4443 30.4506C22.7827 31.3266 24.9419 30.5126 26.0289 28.3454C26.2253 27.9539 26.2772 27.901 26.5023 27.8637C28.4797 27.5358 30.014 26.4888 30.7245 24.9822C31.0916 24.2038 31.2196 23.5762 31.2196 22.554V21.7028L31.8184 21.1243C32.7569 20.2175 33.3976 19.1268 33.696 17.9279C33.8562 17.284 33.8579 15.856 33.6993 15.2194L33.5828 14.7524L33.7941 14.14C34.0622 13.3631 34.067 13.1035 33.8172 12.9098C33.7137 12.8295 33.5734 12.7638 33.5054 12.7638C33.2836 12.7638 33.0116 13.042 32.9337 13.3486C32.8924 13.5112 32.7753 13.855 32.6734 14.1128C32.4755 14.6134 32.4755 14.6156 32.6826 15.6512C32.9042 16.7596 32.7248 17.9275 32.1726 18.9701C31.8785 19.5254 31.2868 20.2504 30.8209 20.6265C30.0341 21.2616 30.1215 21.0502 30.1383 22.2778C30.1492 23.0721 30.1234 23.4756 30.0419 23.785C29.7402 24.9308 29.0583 25.7641 28.0051 26.2737C27.4012 26.566 26.4493 26.8484 26.0683 26.8484C25.664 26.8484 25.5167 26.9838 25.1936 27.6525C25.0237 28.0043 24.752 28.4563 24.5899 28.6569C23.6029 29.8784 21.9774 30.067 20.125 29.1747C19.4438 28.8466 19.3015 28.83 19.0884 29.0537C18.9437 29.2056 18.9331 29.2862 18.9331 30.2416C18.9331 31.929 18.6424 33.1288 17.9653 34.2364L17.5954 34.8414L17.1668 34.8622L16.7381 34.8829L16.3779 33.9467C15.4619 31.5659 15.0161 29.3557 15.0959 27.5921C15.1751 25.8451 15.7308 24.7648 16.8183 24.244C18.0742 23.6426 19.5441 23.8737 21.3301 24.9535C21.8332 25.2577 21.935 25.295 22.0966 25.2344C22.3319 25.1462 22.4745 24.9322 22.6201 24.4485C22.7793 23.9194 23.0351 23.4429 23.3366 23.114C23.6377 22.7855 24.48 22.3504 25.1734 22.1654C25.8788 21.9771 25.9189 21.8963 25.7669 20.9704C25.5588 19.7028 25.6301 19.0129 26.0475 18.257C26.3048 17.791 26.7856 17.3651 27.4329 17.0297C28.0978 16.6852 28.1391 16.5927 27.9631 15.8446C27.863 15.4191 27.8266 15.0003 27.8268 14.2779C27.8271 13.1705 27.9432 12.6682 28.4097 11.755C28.7264 11.135 28.6839 11.006 28.0341 10.6156C26.9144 9.94277 26.4413 8.82347 26.5243 7.04296C26.5593 6.29289 26.5498 6.20014 26.4216 6.03943C26.2091 5.77309 25.9156 5.80457 25.4731 6.14119C24.67 6.7519 23.7903 7.01176 22.5404 7.00733C21.534 7.00381 20.5682 6.82852 19.5204 6.4593C19.1384 6.32465 18.7707 6.2145 18.7031 6.2145C18.6356 6.2145 18.3624 6.35253 18.096 6.52127C16.5928 7.47332 14.9223 7.58254 13.2761 6.83655C12.7559 6.60085 12.7235 6.60099 11.8985 6.84296C10.6934 7.19641 9.18462 6.90402 8.06569 6.10021C7.67867 5.82218 7.44494 5.80035 7.23321 6.02253ZM18.3015 7.61825C17.6733 7.99543 16.8223 8.25853 15.9686 8.33952C15.0856 8.42332 14.6091 8.55149 13.9813 8.87417C13.3583 9.19431 12.8735 9.62523 12.6203 10.0839C12.4581 10.3776 12.4075 10.5881 12.352 11.2C12.1873 13.0167 11.6143 14.0906 10.5564 14.5651C10.1647 14.7408 10.0293 14.7645 9.43249 14.7618C8.8726 14.7593 8.63815 14.721 8.09262 14.5432L7.43137 14.3277L7.38486 14.5141C7.35929 14.6166 7.28071 14.8343 7.21021 14.9977L7.08206 15.2951L7.45365 15.4782C7.65802 15.5789 7.98026 15.7896 8.1697 15.9464L8.51408 16.2315L8.84831 16.0545C9.03211 15.9572 9.28834 15.8555 9.41778 15.8285C9.77401 15.7543 10.2917 15.9093 10.6966 16.2115L11.06 16.4826L11.1908 16.1966C11.6276 15.2417 12.5498 14.6778 13.8694 14.5587L14.4133 14.5097L14.2296 14.0065C14.0776 13.59 14.0454 13.3757 14.0429 12.7638C14.0396 11.9486 14.1731 11.5253 14.5617 11.1186C14.9983 10.6614 15.3632 10.5107 16.5401 10.3016C18.2044 10.0059 19.445 9.44685 20.3082 8.60353C20.6126 8.306 20.8618 8.03205 20.8618 7.9948C20.8618 7.95754 20.6826 7.88754 20.4637 7.83923C20.2447 7.79092 19.7887 7.65916 19.4503 7.54634C19.1118 7.43353 18.8168 7.3424 18.7946 7.34374C18.7726 7.34515 18.5506 7.46867 18.3015 7.61825ZM25.0763 7.58937C24.9781 7.64557 24.7289 7.74177 24.5227 7.80311L24.1477 7.91466V8.50501C24.1477 10.027 23.0901 11.3445 20.9798 12.4512C20.5792 12.6613 20.3621 12.8167 20.3628 12.8929C20.3636 12.9718 20.594 13.1182 21.0656 13.3394C22.6592 14.0869 23.8327 15.4082 24.0809 16.7346C24.257 17.6754 23.871 18.8578 23.0833 19.7911C22.6986 20.2467 21.8149 20.9378 21.1586 21.2962L20.7463 21.5214L20.7505 22.2659C20.7528 22.6754 20.7279 23.0941 20.6953 23.1963C20.6392 23.3719 20.6629 23.3964 21.1215 23.6364C21.3886 23.7763 21.6242 23.8905 21.6452 23.8904C21.6661 23.8903 21.7447 23.7398 21.8198 23.5559C22.2316 22.5483 22.9995 21.8488 24.2 21.3877L24.7167 21.1893L24.6644 20.9026C24.6356 20.745 24.6142 20.2357 24.6169 19.7709C24.6224 18.8325 24.7554 18.3161 25.159 17.6662C25.3485 17.3611 25.3675 17.2813 25.3269 16.962C25.2175 16.1025 24.8804 15.3118 24.3503 14.6708C23.685 13.8666 23.5822 13.5853 23.748 13.0229C23.8901 12.541 24.186 12.2716 24.8847 11.9876C25.5478 11.7183 26.231 11.2838 26.4346 11.0019L26.581 10.7991L26.3355 10.4821C25.8426 9.84551 25.5261 8.95354 25.4522 7.99269C25.4107 7.45388 25.3767 7.4174 25.0763 7.58937ZM12.1469 7.88233C11.6419 8.04663 10.2796 8.08269 9.69594 7.94719C9.42828 7.88508 9.18033 7.83423 9.14483 7.83423C9.1094 7.83423 9.13897 7.96888 9.21048 8.13353C9.57814 8.97938 9.75365 10.0709 9.65057 10.8702C9.6125 11.165 9.54371 11.4876 9.49771 11.5873C9.38442 11.8323 9.05547 11.9645 8.82102 11.8593C8.53579 11.7311 8.47422 11.5077 8.56215 10.9197C8.65358 10.3084 8.57665 9.56847 8.35121 8.89058C8.09019 8.10585 8.08941 8.10543 7.84175 8.6141C7.70974 8.88516 7.44715 9.24009 7.17535 9.51474L6.72675 9.96798L6.92834 10.3624C7.26907 11.0293 7.51151 11.8957 7.55559 12.6042L7.59609 13.2543L7.9964 13.403C8.61565 13.6329 9.35463 13.7659 9.71729 13.7127C10.1394 13.6508 10.3617 13.531 10.6452 13.2127C11.0451 12.7637 11.1748 12.3298 11.2874 11.0651C11.347 10.3957 11.3953 10.1957 11.5988 9.77537C11.8806 9.19319 12.339 8.66769 12.8938 8.291C13.1116 8.14311 13.2899 8.01191 13.2899 7.99952C13.2899 7.94592 12.7587 7.76444 12.6204 7.77078C12.5368 7.77459 12.3237 7.8248 12.1469 7.88233ZM21.829 8.43445C21.5297 8.9379 20.8206 9.63643 20.1869 10.0521C19.2276 10.6814 18.1022 11.093 16.6187 11.357C15.4504 11.565 15.1446 11.8015 15.0905 12.5392C15.0506 13.0828 15.1707 13.6201 15.4694 14.2346C15.7067 14.7228 15.7274 14.7433 16.1628 14.9244C16.9792 15.2641 19.9524 16.7772 20.0486 16.9019C20.2794 17.2016 20.0204 17.6935 19.6318 17.6935C19.4933 17.6935 18.9084 17.4359 18.0476 16.996C16.2103 16.0568 15.4586 15.7508 14.7392 15.6487C13.7391 15.5067 12.7338 15.7801 12.3388 16.3015C12.0627 16.666 11.9848 17.0087 12.0164 17.7189C12.0404 18.2584 12.0817 18.4394 12.2711 18.8385C12.6714 19.6812 13.4326 20.3201 14.3149 20.5539C14.5173 20.6075 15.0139 20.6721 15.4185 20.6974C16.0885 20.7394 16.1667 20.759 16.2936 20.9181C16.4778 21.149 16.4694 21.306 16.2599 21.5452C16.0909 21.7382 16.0707 21.7426 15.3849 21.7332C14.09 21.7155 13.1251 21.3643 12.3001 20.6103C11.7513 20.1087 11.3938 19.5486 11.0269 18.6158C10.6996 17.7837 10.2708 17.1477 9.91731 16.9703C9.34548 16.6834 9.20841 17.0039 9.57371 17.7736C9.9736 18.6161 10.1001 19.2358 10.1035 20.3695C10.1064 21.3078 10.0909 21.4335 9.91273 21.9188C9.80609 22.2093 9.71065 22.4764 9.70072 22.5124C9.66822 22.6291 10.6657 23.3217 11.3292 23.6431C12.2168 24.0731 13.1374 24.3098 14.1248 24.3619L14.924 24.4041L15.4083 23.9666C15.9294 23.4958 16.6332 23.1228 17.2901 22.969C17.7491 22.8616 18.8356 22.8564 19.2737 22.9595C19.6484 23.0476 19.7192 22.9583 19.7181 22.3988C19.7162 21.3606 18.654 20.2883 16.5415 19.1921C15.6647 18.7371 15.5184 18.5597 15.7232 18.2001C15.9368 17.8248 16.1323 17.836 17.0217 18.2744C18.161 18.8359 18.8738 19.3186 19.5978 20.019L20.2269 20.6273L20.6848 20.3635C21.2949 20.0121 21.9368 19.5194 22.2406 19.1694C22.8498 18.4679 23.1679 17.5035 23.0137 16.8259C22.7817 15.8063 21.6611 14.6715 20.396 14.175C19.8161 13.9474 19.5982 13.787 19.4315 13.465C19.1107 12.8451 19.3405 12.1809 20.0066 11.8022C21.2898 11.0728 21.7265 10.7785 22.1853 10.3342C22.8206 9.71903 23.0278 9.31657 23.0646 8.62649L23.0918 8.11593H22.555H22.0183L21.829 8.43445ZM26.7472 12.1334C26.555 12.2922 26.0394 12.5948 25.6013 12.8056C25.1632 13.0165 24.7854 13.2388 24.7617 13.2997C24.7107 13.4307 24.7296 13.4643 25.1202 13.9384C25.6746 14.6112 26.2907 15.8487 26.2907 16.2892C26.2907 16.4613 26.3087 16.4602 26.6503 16.2674C26.8277 16.1672 26.9195 16.0701 26.8997 16.0033C26.6462 15.1493 26.6738 13.4138 26.9556 12.4824C27.0552 12.1534 27.1276 11.8753 27.1166 11.8644C27.1055 11.8536 26.9393 11.9746 26.7472 12.1334ZM0.191562 13.6141C-0.0544537 13.8048 -0.0650258 14.1548 0.168631 14.3713C0.441577 14.624 0.798813 14.5647 0.97011 14.2381C1.09519 13.9996 1.02204 13.7495 0.777741 13.5808C0.560227 13.4306 0.417647 13.4387 0.191562 13.6141Z" fill="white"/>
</svg>
