<svg width="18" height="19" viewBox="0 0 18 19" xmlns="http://www.w3.org/2000/svg">
<path fill-rule="evenodd" clip-rule="evenodd" d="M12.9373 8.37495C12.9373 9.03976 12.8064 9.69807 12.5519 10.3123C12.2976 10.9265 11.9246 11.4846 11.4546 11.9547C10.9845 12.4247 10.4264 12.7977 9.81216 13.0521C9.19795 13.3065 8.53965 13.4375 7.87483 13.4375C7.21001 13.4375 6.55171 13.3065 5.93749 13.0521C5.32328 12.7977 4.76519 12.4247 4.2951 11.9547C3.825 11.4846 3.45211 10.9265 3.19769 10.3123C2.94327 9.69807 2.81233 9.03976 2.81233 8.37495C2.81233 7.03229 3.34569 5.74462 4.2951 4.79522C5.2445 3.84581 6.53216 3.31245 7.87483 3.31245C9.21748 3.31245 10.5051 3.84581 11.4546 4.79522C12.404 5.74462 12.9373 7.03229 12.9373 8.37495ZM12.0148 13.7074C10.6585 14.7605 8.95187 15.2569 7.24235 15.0958C5.53284 14.9348 3.94896 14.1283 2.81317 12.8405C1.67737 11.5527 1.07505 9.88053 1.1288 8.16429C1.18256 6.44805 1.88837 4.8168 3.10252 3.60264C4.31669 2.38849 5.94793 1.68269 7.66417 1.62892C9.38042 1.57517 11.0526 2.17749 12.3404 3.31329C13.6282 4.44908 14.4347 6.03296 14.5957 7.74248C14.7568 9.45198 14.2603 11.1586 13.2073 12.515L16.6273 15.935C16.7103 16.0122 16.7767 16.1054 16.8229 16.2089C16.869 16.3124 16.8937 16.4241 16.8958 16.5374C16.8978 16.6507 16.8769 16.7632 16.8345 16.8682C16.792 16.9733 16.7288 17.0687 16.6487 17.1488C16.5686 17.229 16.4732 17.2922 16.3681 17.3346C16.2631 17.377 16.1506 17.3979 16.0373 17.3959C15.924 17.3939 15.8122 17.3691 15.7088 17.323C15.6053 17.2769 15.5121 17.2104 15.4348 17.1274L12.0148 13.7074Z"/>
</svg>
