<svg width="14" height="14" viewBox="0 0 14 14" fill="none" xmlns="http://www.w3.org/2000/svg">
<g id="system-uicons:reset-forward">
<g id="Group">
<path id="Vector" d="M4.33341 2.33334C2.72408 3.25134 1.66675 5.01467 1.66675 7C1.66675 8.05484 1.97954 9.08598 2.56558 9.96305C3.15161 10.8401 3.98456 11.5237 4.9591 11.9274C5.93364 12.331 7.006 12.4366 8.04056 12.2309C9.07513 12.0251 10.0254 11.5171 10.7713 10.7712C11.5172 10.0254 12.0251 9.07505 12.2309 8.04049C12.4367 7.00592 12.3311 5.93357 11.9274 4.95903C11.5238 3.98449 10.8402 3.15153 9.96312 2.5655C9.08606 1.97947 8.05491 1.66667 7.00008 1.66667" stroke="#007A8F" stroke-linecap="round" stroke-linejoin="round"/>
<path id="Vector_2" d="M4.33341 5.00001V2.33334H1.66675" stroke="#007A8F" stroke-linecap="round" stroke-linejoin="round"/>
</g>
</g>
</svg>
