<svg width="24" height="24" viewBox="0 0 24 24" fill="none" xmlns="http://www.w3.org/2000/svg">
<g id="Iconly/Light/Calling">
<g id="Calling">
<path id="Stroke 1 (Stroke)" fill-rule="evenodd" clip-rule="evenodd" d="M13.6076 2.41723C13.6533 2.00554 14.0241 1.70887 14.4358 1.75459C18.485 2.20426 21.6842 5.39901 22.1383 9.44843C22.1845 9.86006 21.8882 10.2312 21.4765 10.2773C21.0649 10.3235 20.6938 10.0272 20.6476 9.61558C20.2717 6.263 17.6229 3.61775 14.2702 3.24542C13.8585 3.1997 13.5618 2.82891 13.6076 2.41723Z" fill="#007A8F"/>
<path id="Stroke 3 (Stroke)" fill-rule="evenodd" clip-rule="evenodd" d="M13.6168 5.90004C13.6958 5.49343 14.0894 5.22783 14.4961 5.30681C16.5675 5.70918 18.1858 7.32907 18.5892 9.39964C18.6684 9.80621 18.403 10.2 17.9965 10.2792C17.5899 10.3584 17.1961 10.093 17.1169 9.68646C16.8302 8.21503 15.6805 7.06492 14.21 6.77929C13.8034 6.70031 13.5378 6.30665 13.6168 5.90004Z" fill="#007A8F"/>
<path id="Stroke 5 (Stroke)" fill-rule="evenodd" clip-rule="evenodd" d="M3.62337 4.79523C3.58097 4.84287 3.53586 4.88675 3.51081 4.91112C3.50793 4.91392 3.50532 4.91646 3.50301 4.91872L3.49953 4.92212C3.45706 4.9636 3.41569 5.00402 3.37019 5.05191C3.27874 5.14818 3.17594 5.2695 3.08048 5.42419C2.89583 5.72339 2.71305 6.18755 2.75647 6.89842C2.84606 8.36528 3.90881 10.9845 8.21473 15.2893C12.5201 19.5936 15.1388 20.6549 16.605 20.7437C17.3156 20.7867 17.7795 20.6037 18.0785 20.4188C18.2331 20.3233 18.3544 20.2204 18.4507 20.1288C18.4985 20.0834 18.5388 20.0421 18.5803 19.9996L18.5839 19.9959C18.5862 19.9936 18.5887 19.9909 18.5915 19.9881C18.6159 19.963 18.6599 19.9177 18.7077 19.8752C19.4565 19.1249 19.8773 18.5853 20.0869 18.1753C20.2819 17.7939 20.2713 17.5744 20.212 17.3954C20.1345 17.1613 19.9337 16.8776 19.5155 16.4488C19.3132 16.2414 19.0802 16.0194 18.811 15.7634L18.7963 15.7494C18.5342 15.5001 18.243 15.2231 17.9351 14.9153M3.62337 4.79523C4.37587 4.04464 4.91659 3.62304 5.32707 3.4131C5.70889 3.21781 5.92785 3.22886 6.10605 3.2881C6.33972 3.36577 6.62287 3.5669 7.05148 3.98587C7.25878 4.18851 7.48065 4.42179 7.73665 4.69121L7.74225 4.6971C7.99376 4.96179 8.27354 5.25623 8.58502 5.56763C9.11074 6.09345 9.18163 6.43753 9.17512 6.69016C9.17114 6.84459 9.13585 7.01552 9.06875 7.2335C9.03525 7.34229 8.99656 7.45451 8.95253 7.58063C8.94816 7.59315 8.94373 7.60583 8.93925 7.61865C8.89993 7.73115 8.85675 7.8547 8.81594 7.981C8.62941 8.55836 8.46144 9.28217 8.67791 10.1641C8.89043 11.03 9.44839 11.9502 10.5013 13.0028C11.5541 14.0554 12.4744 14.6131 13.3403 14.8252C14.2222 15.0413 14.9459 14.8728 15.523 14.6858C15.6492 14.6449 15.7727 14.6017 15.8852 14.5623C15.898 14.5578 15.9106 14.5533 15.9231 14.5489C16.0492 14.5048 16.1613 14.4661 16.2701 14.4325C16.4879 14.3653 16.6587 14.3299 16.813 14.3258C17.0652 14.3192 17.4092 14.3898 17.9351 14.9153M8.82511 3.65909C9.07904 3.92633 9.34777 4.20914 9.64566 4.50695C10.3893 5.25072 10.6941 5.97243 10.6746 6.7288C10.6656 7.07887 10.5875 7.39827 10.5023 7.67486C10.4597 7.81335 10.4125 7.94947 10.3687 8.07504C10.3643 8.08765 10.3599 8.10014 10.3556 8.11254C10.3155 8.22734 10.2783 8.33382 10.2433 8.44215C10.0929 8.90766 10.0146 9.31727 10.1347 9.80654C10.2587 10.3119 10.6202 11.0006 11.5618 11.942C12.5034 12.8834 13.1921 13.2445 13.6972 13.3683C14.1862 13.4881 14.5955 13.4095 15.0607 13.2588C15.169 13.2238 15.2754 13.1865 15.3901 13.1463C15.4025 13.142 15.415 13.1376 15.4276 13.1332C15.5531 13.0892 15.6892 13.042 15.8276 12.9992C16.1041 12.9139 16.4234 12.8356 16.7734 12.8263C17.5298 12.8064 18.2515 13.1109 18.9954 13.8543C19.2899 14.1488 19.5698 14.4149 19.8343 14.6665L19.8448 14.6765C20.1092 14.928 20.3637 15.1702 20.5893 15.4015C21.0269 15.8501 21.4433 16.3418 21.636 16.924C21.847 17.5612 21.7596 18.1989 21.4224 18.8583C21.1016 19.4856 20.54 20.1647 19.749 20.9552C19.7339 20.9703 19.7182 20.9847 19.7019 20.9984C19.7008 20.9998 19.6886 21.0116 19.6572 21.0437L19.6504 21.0507C19.6103 21.0919 19.5528 21.1507 19.4844 21.2158C19.3373 21.3556 19.1342 21.5297 18.8671 21.6948C18.3228 22.0312 17.5543 22.3039 16.5144 22.2409C14.4798 22.1177 11.5256 20.7204 7.15421 16.3501C2.78226 11.9792 1.38355 9.02482 1.25926 6.98986C1.19574 5.94982 1.4679 5.18102 1.80399 4.63643C1.96889 4.36921 2.1429 4.16593 2.28269 4.01878C2.34794 3.95011 2.40687 3.89256 2.44808 3.85231C2.45038 3.85007 2.45262 3.84788 2.45481 3.84574C2.48724 3.81407 2.499 3.80191 2.50024 3.80089C2.51401 3.78454 2.52848 3.76878 2.54359 3.75366C3.33606 2.96113 4.01624 2.39873 4.64403 2.07764C5.30394 1.74012 5.94188 1.65281 6.57923 1.86469C7.16113 2.05812 7.65221 2.47549 8.10001 2.91322C8.33 3.13804 8.57087 3.39153 8.82102 3.65479L8.82511 3.65909Z" fill="#007A8F"/>
</g>
</g>
</svg>
