<svg width="52" height="52" viewBox="0 0 52 52" fill="none" xmlns="http://www.w3.org/2000/svg">
<path fill-rule="evenodd" clip-rule="evenodd" d="M5.25195 8.50208H40.2478V48.9146H5.25195V8.50208ZM7.74779 10.9979V46.4187H37.7519V10.9979H7.74779Z" fill="#007A8F"/>
<path fill-rule="evenodd" clip-rule="evenodd" d="M10.668 3.08521H45.6638V43.4977H38.9992V41.0019H43.168V5.58104H13.1638V9.74979H10.668V3.08521Z" fill="#007A8F"/>
<path fill-rule="evenodd" clip-rule="evenodd" d="M35.1024 35.9957L27.0835 44.0145L21.2178 38.1488L22.9826 36.384L27.0835 40.4849L33.3376 34.2308L35.1024 35.9957Z" fill="#007A8F"/>
<path fill-rule="evenodd" clip-rule="evenodd" d="M14.3776 28.0661C13.3352 28.5866 13.1638 29.0764 13.1638 29.25H10.668C10.668 27.6226 11.9523 26.4874 13.2627 25.8331C14.6467 25.1421 16.4707 24.7521 18.4159 24.7521C20.3611 24.7521 22.1851 25.1421 23.569 25.8331C24.8794 26.4874 26.1638 27.6226 26.1638 29.25H23.668C23.668 29.0764 23.4966 28.5866 22.4541 28.0661C21.4852 27.5823 20.0592 27.2479 18.4159 27.2479C16.7726 27.2479 15.3465 27.5823 14.3776 28.0661Z" fill="#007A8F"/>
<path fill-rule="evenodd" clip-rule="evenodd" d="M18.4159 16.4148C17.3102 16.4148 16.4138 17.3111 16.4138 18.4169C16.4138 19.5226 17.3102 20.4189 18.4159 20.4189C19.5216 20.4189 20.418 19.5226 20.418 18.4169C20.418 17.3111 19.5216 16.4148 18.4159 16.4148ZM13.918 18.4169C13.918 15.9327 15.9318 13.9189 18.4159 13.9189C20.9 13.9189 22.9138 15.9327 22.9138 18.4169C22.9138 20.901 20.9 22.9148 18.4159 22.9148C15.9318 22.9148 13.918 20.901 13.918 18.4169Z" fill="#007A8F"/>
<path fill-rule="evenodd" clip-rule="evenodd" d="M34.6667 16.4148H26V13.9189H34.6667V16.4148Z" fill="#007A8F"/>
<path fill-rule="evenodd" clip-rule="evenodd" d="M34.6667 21.831H26V19.3352H34.6667V21.831Z" fill="#007A8F"/>
</svg>
