<svg width="52" height="52" viewBox="0 0 52 52" fill="none" xmlns="http://www.w3.org/2000/svg">
<g clip-path="url(#clip0_1851_28168)">
<path fill-rule="evenodd" clip-rule="evenodd" d="M25.257 14.8254L29.6987 19.267L27.9339 21.0319L23.4922 16.5902L25.257 14.8254Z" fill="#007A8F"/>
<path fill-rule="evenodd" clip-rule="evenodd" d="M20.923 19.1591L26.448 24.6841L24.6832 26.4489L19.1582 20.9239L20.923 19.1591Z" fill="#007A8F"/>
<path fill-rule="evenodd" clip-rule="evenodd" d="M16.59 23.4922L21.0317 27.9339L19.2669 29.6987L14.8252 25.2571L16.59 23.4922Z" fill="#007A8F"/>
<path fill-rule="evenodd" clip-rule="evenodd" d="M10.431 31.4165L32.2986 9.54894L30.5338 7.78412L6.90137 31.4165L20.5829 45.098L44.2153 21.4656L42.4504 19.7008L20.5829 41.5684L10.431 31.4165Z" fill="#007A8F"/>
<path fill-rule="evenodd" clip-rule="evenodd" d="M41.5067 4.67394L34.465 11.7156L32.7002 9.95079L39.7419 2.90912L41.5067 4.67394Z" fill="#007A8F"/>
<path fill-rule="evenodd" clip-rule="evenodd" d="M40.2832 17.5339L47.3249 10.4922L49.0897 12.2571L42.048 19.2987L40.2832 17.5339Z" fill="#007A8F"/>
<path fill-rule="evenodd" clip-rule="evenodd" d="M10.431 38.9995L13.3403 36.0902L11.5754 34.3254L6.90137 38.9995L12.9995 45.0976L17.6736 40.4235L15.9088 38.6587L12.9995 41.568L10.431 38.9995Z" fill="#007A8F"/>
<path fill-rule="evenodd" clip-rule="evenodd" d="M29.4826 4.96713L47.0326 22.5171L45.2678 24.282L27.7178 6.73195L29.4826 4.96713Z" fill="#007A8F"/>
<path fill-rule="evenodd" clip-rule="evenodd" d="M39.2326 0.634003L51.3659 12.7673L49.6011 14.5322L37.4678 2.39882L39.2326 0.634003Z" fill="#007A8F"/>
<path fill-rule="evenodd" clip-rule="evenodd" d="M0.633789 49.6008L9.95046 40.2841L11.7153 42.0489L2.39861 51.3656L0.633789 49.6008Z" fill="#007A8F"/>
</g>
<defs>
<clipPath id="clip0_1851_28168">
<rect width="52" height="52" fill="white"/>
</clipPath>
</defs>
</svg>
