<svg width="24" height="24" viewBox="0 0 24 24" fill="none" xmlns="http://www.w3.org/2000/svg">
<g id="Iconly/Light/Edit Square">
<g id="Edit Square">
<path id="Stroke 1 (Stroke)" fill-rule="evenodd" clip-rule="evenodd" d="M3.54999 3.75144C4.57274 2.65417 6.02998 2.03906 7.75324 2.03906H11.4922C11.9065 2.03906 12.2422 2.37485 12.2422 2.78906C12.2422 3.20328 11.9065 3.53906 11.4922 3.53906H7.75324C6.40151 3.53906 5.35725 4.01246 4.64725 4.77419C3.9318 5.54176 3.50024 6.66275 3.50024 8.04806V16.3621C3.50024 17.7483 3.9301 18.8692 4.64421 19.6363C5.35267 20.3974 6.39653 20.8711 7.75324 20.8711H16.5772C17.9345 20.8711 18.9786 20.3973 19.6872 19.6363C20.4014 18.8691 20.8312 17.7483 20.8312 16.3621V12.3341C20.8312 11.9198 21.167 11.5841 21.5812 11.5841C21.9955 11.5841 22.3312 11.9198 22.3312 12.3341V16.3621C22.3312 18.0578 21.8016 19.5665 20.785 20.6584C19.7629 21.7563 18.305 22.3711 16.5772 22.3711H7.75324C6.02595 22.3711 4.56832 21.7563 3.54628 20.6583C2.52989 19.5665 2.00024 18.0578 2.00024 16.3621V8.04806C2.00024 6.35137 2.53269 4.84286 3.54999 3.75144Z" fill="#007A8F"/>
<path id="Stroke 3 (Stroke)" fill-rule="evenodd" clip-rule="evenodd" d="M19.1417 3.9786C18.5035 3.34112 17.469 3.34112 16.8308 3.9786L9.35809 11.4513C9.10029 11.7091 8.95174 12.0559 8.94252 12.4196L8.86764 15.431H11.8448C12.2216 15.431 12.5829 15.2812 12.8494 15.0147L20.3584 7.50566C20.996 6.86877 20.9967 5.83358 20.3584 5.19532L19.1417 3.9786ZM15.7707 2.91737C16.9945 1.69486 18.978 1.69486 20.2018 2.91737L21.4191 4.13466C22.6428 5.35839 22.6432 7.34349 21.4188 8.5666L13.9101 16.0753C13.3626 16.6228 12.6199 16.931 11.8448 16.931H8.09876C7.89661 16.931 7.70302 16.8494 7.56187 16.7047C7.42072 16.56 7.34396 16.3644 7.34899 16.1623L7.44299 12.3823C7.46183 11.6342 7.76728 10.9208 8.29743 10.3907L15.7707 2.91737Z" fill="#007A8F"/>
<path id="Stroke 5 (Stroke)" fill-rule="evenodd" clip-rule="evenodd" d="M14.6348 4.07221C14.9277 3.77932 15.4026 3.77932 15.6955 4.07221L20.2615 8.63821C20.5544 8.9311 20.5544 9.40598 20.2615 9.69887C19.9686 9.99176 19.4937 9.99176 19.2008 9.69887L14.6348 5.13287C14.3419 4.83998 14.3419 4.3651 14.6348 4.07221Z" fill="#007A8F"/>
</g>
</g>
</svg>
