<svg width="26" height="38" viewBox="0 0 26 38" fill="none" xmlns="http://www.w3.org/2000/svg">
<path fill-rule="evenodd" clip-rule="evenodd" d="M12.5906 0.810804C12.6674 0.622828 12.8503 0.5 13.0534 0.5H24.0329C25.0855 0.5 25.9178 1.34839 25.9178 2.39922V35.6008C25.9178 36.6516 25.0855 37.5 24.0329 37.5H11.0751C10.4417 37.5 10.0519 36.8413 10.2751 36.2932C10.2755 36.292 10.276 36.2909 10.2765 36.2897L11.2435 33.857L11.2451 33.853C11.288 33.7479 11.337 33.6331 11.39 33.5092C11.5227 33.1989 11.6798 32.8314 11.8244 32.4157C12.0252 31.8386 12.1775 31.2308 12.1775 30.6835C12.1775 30.6732 12.1778 30.6629 12.1785 30.6527L12.316 28.4294C9.42222 28.2589 7.47461 26.7121 6.26123 24.5328C4.9912 22.2518 4.52148 19.2817 4.52148 16.4514C4.52148 16.3231 4.57085 16.1996 4.65935 16.1067C6.61393 14.0535 8.16238 11.6481 9.22701 9.02726L9.23129 9.01671C9.32827 8.79274 9.41412 8.58212 9.49242 8.38972C9.52403 8.31206 9.55442 8.23737 9.58386 8.16599C9.58395 8.16576 9.58376 8.16622 9.58386 8.16599L12.5906 0.810804ZM13.3179 28.4289L13.1775 30.6995C13.1746 31.4065 12.982 32.1316 12.7689 32.7442C12.6119 33.1956 12.4307 33.6196 12.2954 33.936C12.2474 34.0482 12.2052 34.1468 12.172 34.2284C12.1717 34.2291 12.1714 34.2297 12.1712 34.2303L11.269 36.5H24.0329C24.5235 36.5 24.9178 36.1091 24.9178 35.6008V2.39922C24.9178 1.89091 24.5235 1.5 24.0329 1.5H13.3892L10.5092 8.5451L10.5086 8.54653C10.4821 8.61073 10.4535 8.68109 10.4229 8.75619C10.344 8.95024 10.2521 9.17593 10.1513 9.40887C9.06521 12.0808 7.4972 14.5386 5.52228 16.6493C5.54397 19.3309 6.00924 22.0245 7.13494 24.0463C8.27103 26.0868 10.0743 27.445 12.8555 27.445C14.6464 27.445 16.3185 26.5867 17.6074 25.1522C17.792 24.9468 18.1081 24.9299 18.3135 25.1145C18.5189 25.2991 18.5358 25.6152 18.3512 25.8206C17.0153 27.3074 15.2607 28.2929 13.3179 28.4289Z" fill="white"/>
<path fill-rule="evenodd" clip-rule="evenodd" d="M9.64089 0.79628C9.897 0.899539 10.0209 1.19086 9.91765 1.44697L9.45392 1.26001C9.91765 1.44697 9.91766 1.44695 9.91765 1.44697L9.91614 1.45072L9.91209 1.4607L9.89646 1.49903C9.88271 1.53262 9.86234 1.58212 9.83555 1.64655C9.78197 1.77542 9.70267 1.96406 9.59921 2.20463C9.3923 2.68575 9.08863 3.37484 8.70056 4.20933C8.58412 4.45972 8.28674 4.56831 8.03635 4.45187C7.78596 4.33542 7.67737 4.03805 7.79382 3.78766C8.17728 2.96306 8.47699 2.28292 8.68056 1.80956C8.78234 1.5729 8.86006 1.38799 8.91219 1.26262C8.93825 1.19994 8.95791 1.15215 8.97098 1.12023L8.98561 1.08437L8.99 1.07353" fill="white"/>
<path fill-rule="evenodd" clip-rule="evenodd" d="M6.90072 6.67622C7.14393 6.807 7.23508 7.11018 7.1043 7.35339C6.91703 7.70167 6.72157 8.05863 6.51828 8.42204C6.38346 8.66303 6.0788 8.74911 5.83781 8.61429C5.59681 8.47947 5.51074 8.17482 5.64555 7.93382C5.84597 7.57556 6.03875 7.22349 6.22356 6.8798C6.35433 6.63659 6.65751 6.54545 6.90072 6.67622ZM5.12159 9.84245C5.35734 9.98623 5.43191 10.2939 5.28813 10.5297C4.87164 11.2126 4.43169 11.9031 3.9703 12.588C3.81602 12.8171 3.50529 12.8777 3.27627 12.7234C3.04724 12.5691 2.98664 12.2584 3.14091 12.0293C3.59296 11.3583 4.0248 10.6806 4.43437 10.009C4.57815 9.77323 4.88583 9.69867 5.12159 9.84245ZM2.45135 13.8814C2.67136 14.0482 2.71442 14.3619 2.54754 14.5819C2.30112 14.9067 2.04989 15.2273 1.79407 15.542C1.74322 15.6086 1.6982 15.678 1.65965 15.7491C1.61438 15.8325 1.54881 15.8979 1.47238 15.9425C1.50637 16.0217 1.52032 16.1107 1.50864 16.2024C1.499 16.2781 1.49738 16.353 1.50401 16.4266L1.5042 16.4287C1.50969 16.493 1.51542 16.5611 1.52146 16.633C1.54314 16.891 1.56891 17.1977 1.60314 17.548C1.62999 17.8228 1.42896 18.0674 1.15412 18.0942C0.879287 18.1211 0.634724 17.92 0.607874 17.6452C0.572918 17.2874 0.546407 16.9719 0.524692 16.7134C0.518772 16.643 0.513208 16.5767 0.507926 16.5151C0.494669 16.3668 0.498352 16.2198 0.516654 16.0761C0.537055 15.9159 0.631105 15.7832 0.760457 15.7075C0.702501 15.5719 0.704826 15.412 0.780595 15.2723C0.846189 15.1514 0.92169 15.0359 1.00543 14.9271L1.01359 14.9165L1.01373 14.9166C1.26355 14.6094 1.50933 14.2959 1.75081 13.9775C1.9177 13.7575 2.23134 13.7145 2.45135 13.8814ZM1.31342 19.3501C1.58598 19.3058 1.8429 19.4907 1.88728 19.7633C1.9988 20.4482 2.14289 21.1845 2.33165 21.9417C2.39843 22.2097 2.23536 22.481 1.96742 22.5478C1.69947 22.6146 1.42812 22.4515 1.36133 22.1836C1.16478 21.395 1.01543 20.6312 0.900281 19.924C0.855901 19.6514 1.04087 19.3945 1.31342 19.3501ZM2.33279 23.7588C2.5922 23.6641 2.87923 23.7977 2.97388 24.0571C3.22333 24.7408 3.51596 25.4168 3.85972 26.0644C3.98918 26.3084 3.8964 26.611 3.65249 26.7405C3.40858 26.87 3.10589 26.7772 2.97643 26.5333C2.60802 25.8392 2.29728 25.1202 2.03445 24.3999C1.9398 24.1404 2.07337 23.8534 2.33279 23.7588ZM4.33737 27.8048C4.55377 27.6333 4.86826 27.6697 5.0398 27.8861C5.26319 28.1679 5.50069 28.4375 5.75323 28.6927C5.94748 28.889 5.94584 29.2056 5.74957 29.3998C5.5533 29.5941 5.23672 29.5924 5.04247 29.3961C4.76267 29.1134 4.50097 28.8161 4.25614 28.5073C4.0846 28.2909 4.12097 27.9764 4.33737 27.8048Z" fill="white"/>
<path fill-rule="evenodd" clip-rule="evenodd" d="M6.34974 29.902C6.50539 29.6739 6.81648 29.6152 7.04458 29.7709C7.79026 30.2797 8.63036 30.6766 9.58691 30.9421C9.853 31.0159 10.0088 31.2915 9.93499 31.5576C9.86115 31.8237 9.58558 31.9795 9.3195 31.9057C8.25818 31.6111 7.31787 31.168 6.48091 30.5969C6.25282 30.4412 6.19409 30.1301 6.34974 29.902Z" fill="white"/>
</svg>
