<svg width="24" height="24" viewBox="0 0 24 24" fill="none" xmlns="http://www.w3.org/2000/svg">
<g id="Iconly/Light/Wallet">
<g id="Wallet">
<path id="Stroke 1 (Stroke)" fill-rule="evenodd" clip-rule="evenodd" d="M17.5906 8.26324L21.6389 8.26324C22.0531 8.26324 22.3889 8.59903 22.3889 9.01324C22.3889 9.42746 22.0531 9.76324 21.6389 9.76324H17.5909C16.5178 9.764 15.6487 10.6328 15.6484 11.7041M17.5906 8.26324C15.6911 8.26441 14.1484 9.80311 14.1484 11.7045ZM15.6484 11.7041C15.6492 12.7762 16.5182 13.6451 17.5911 13.6458H21.6389C22.0531 13.6458 22.3889 13.9816 22.3889 14.3958C22.3889 14.81 22.0531 15.1458 21.6389 15.1458H17.5906C15.6907 15.1446 14.1496 13.6051 14.1484 11.7045" fill="#007A8F"/>
<path id="Stroke 3 (Stroke)" fill-rule="evenodd" clip-rule="evenodd" d="M16.9868 11.6429C16.9868 11.2287 17.3226 10.8929 17.7368 10.8929H18.0485C18.4627 10.8929 18.7985 11.2287 18.7985 11.6429C18.7985 12.0571 18.4627 12.3929 18.0485 12.3929H17.7368C17.3226 12.3929 16.9868 12.0571 16.9868 11.6429Z" fill="#007A8F"/>
<path id="Stroke 5 (Stroke)" fill-rule="evenodd" clip-rule="evenodd" d="M7.74766 3.75C5.26372 3.75 3.25 5.76372 3.25 8.24766V15.4247C3.25 17.9086 5.26372 19.9224 7.74766 19.9224H16.3911C18.875 19.9224 20.8888 17.9086 20.8888 15.4247V8.24766C20.8888 5.76372 18.875 3.75 16.3911 3.75H7.74766ZM1.75 8.24766C1.75 4.9353 4.4353 2.25 7.74766 2.25H16.3911C19.7035 2.25 22.3888 4.9353 22.3888 8.24766V15.4247C22.3888 18.7371 19.7035 21.4224 16.3911 21.4224H7.74766C4.4353 21.4224 1.75 18.7371 1.75 15.4247V8.24766Z" fill="#007A8F"/>
<path id="Stroke 7 (Stroke)" fill-rule="evenodd" clip-rule="evenodd" d="M6.28564 7.53815C6.28564 7.12393 6.62143 6.78815 7.03564 6.78815H12.4346C12.8488 6.78815 13.1846 7.12393 13.1846 7.53815C13.1846 7.95236 12.8488 8.28815 12.4346 8.28815H7.03564C6.62143 8.28815 6.28564 7.95236 6.28564 7.53815Z" fill="#007A8F"/>
</g>
</g>
</svg>
