<svg width="24" height="24" viewBox="0 0 24 24" fill="none" xmlns="http://www.w3.org/2000/svg">
<path d="M21 12C21 16.9706 16.9706 21 12 21C7.02944 21 3 16.9706 3 12C3 7.02944 7.02944 3 12 3C16.9706 3 21 7.02944 21 12Z" fill="white"/>
<path d="M12 17L12 10M12 7.00996V6.99997M3.22302 10C3.07706 10.6432 3 11.3126 3 12C3 16.9706 7.02944 21 12 21C16.9706 21 21 16.9706 21 12C21 7.02944 16.9706 3 12 3C9.69494 3 7.59227 3.86656 6 5.29168" stroke="#0E3449" stroke-width="1.5" stroke-linecap="round"/>
</svg>
