<svg width="25" height="24" viewBox="0 0 25 24" fill="none" xmlns="http://www.w3.org/2000/svg">
<g id="Iconly/Light/Document">
<g id="Document">
<path id="Stroke 1 (Stroke)" fill-rule="evenodd" clip-rule="evenodd" d="M8.24609 16.2234C8.24609 15.8092 8.58188 15.4734 8.99609 15.4734H16.2161C16.6303 15.4734 16.9661 15.8092 16.9661 16.2234C16.9661 16.6376 16.6303 16.9734 16.2161 16.9734H8.99609C8.58188 16.9734 8.24609 16.6376 8.24609 16.2234Z" fill="#007A8F"/>
<path id="Stroke 2 (Stroke)" fill-rule="evenodd" clip-rule="evenodd" d="M8.24609 12.0369C8.24609 11.6227 8.58188 11.2869 8.99609 11.2869H16.2161C16.6303 11.2869 16.9661 11.6227 16.9661 12.0369C16.9661 12.4511 16.6303 12.7869 16.2161 12.7869H8.99609C8.58188 12.7869 8.24609 12.4511 8.24609 12.0369Z" fill="#007A8F"/>
<path id="Stroke 3 (Stroke)" fill-rule="evenodd" clip-rule="evenodd" d="M8.24609 7.86011C8.24609 7.44589 8.58188 7.11011 8.99609 7.11011H11.7511C12.1653 7.11011 12.5011 7.44589 12.5011 7.86011C12.5011 8.27432 12.1653 8.61011 11.7511 8.61011H8.99609C8.58188 8.61011 8.24609 8.27432 8.24609 7.86011Z" fill="#007A8F"/>
<path id="Stroke 4 (Stroke)" fill-rule="evenodd" clip-rule="evenodd" d="M16.4085 1.99982C17.9689 1.99982 19.3022 2.51477 20.2446 3.48743C21.1842 4.45718 21.6655 5.80964 21.6655 7.35682V16.5528C21.6655 18.0927 21.1877 19.4391 20.2559 20.4073C19.3212 21.3784 17.9985 21.8973 16.4501 21.9068L16.4455 21.9068L8.75713 21.9098C7.19669 21.9098 5.86294 21.3949 4.92076 20.4221C3.98143 19.4523 3.50049 18.0999 3.50049 16.5528V7.35682C3.50049 5.81706 3.97794 4.47086 4.90961 3.50285C5.84406 2.53195 7.16655 2.01337 8.71487 2.00383L8.71949 2.0038L16.4085 1.99982ZM16.4085 3.49982C17.632 3.49985 18.5523 3.8964 19.1673 4.5312C19.7853 5.16895 20.1655 6.11999 20.1655 7.35682V16.5528C20.1655 17.783 19.7883 18.73 19.1751 19.3671C18.5651 20.0009 17.6534 20.3989 16.4428 20.4068C16.4422 20.4068 16.4415 20.4068 16.4409 20.4068L8.75655 20.4098C7.53298 20.4098 6.61304 20.0133 5.99821 19.3785C5.38054 18.7408 5.00049 17.7898 5.00049 16.5528V7.35682C5.00049 6.12657 5.37753 5.17977 5.99037 4.54303C6.60007 3.90954 7.5114 3.51171 8.72207 3.50382C8.72275 3.50381 8.72343 3.50381 8.72411 3.5038L16.4085 3.49982Z" fill="#007A8F"/>
</g>
</g>
</svg>
