<svg width="33" height="37" viewBox="0 0 33 37" fill="none" xmlns="http://www.w3.org/2000/svg">
<path fill-rule="evenodd" clip-rule="evenodd" d="M8.00066 8.67476C8.15053 8.54313 8.38113 8.38124 8.66688 8.38124C8.94731 8.38124 9.17728 8.53655 9.32934 8.66501C9.49706 8.80671 9.66421 8.99752 9.82775 9.21285C10.1566 9.64589 10.5228 10.2478 10.9054 10.9467C11.6732 12.3491 12.543 14.2091 13.3587 16.0571C14.1755 17.9077 14.9428 19.7571 15.5055 21.1431C15.787 21.8363 16.0175 22.414 16.1777 22.8186C16.2578 23.021 16.3204 23.18 16.3629 23.2886L16.4114 23.4127L16.4279 23.455C16.4279 23.4551 16.4282 23.4557 16.2758 23.5149C16.2758 23.5149 16.2757 23.5149 16.2758 23.5149L16.4279 23.455C16.4327 23.4672 16.4372 23.4804 16.441 23.4929C16.4889 23.6524 16.5361 23.8081 16.5825 23.9608C16.6249 24.1006 16.6665 24.2378 16.7071 24.3728C17.0557 25.5143 17.3814 26.6514 17.3814 28.013C17.3814 31.4372 15.292 34.3879 12.3034 35.6714C11.2661 36.1271 10.1176 36.3749 8.92112 36.3749C4.26782 36.3749 0.5 32.6307 0.5 28.0324C0.5 26.4708 0.808783 25.178 1.20416 23.8079C1.20713 23.7977 1.21043 23.7875 1.21405 23.7774L1.68455 23.9466C1.21405 23.7774 1.214 23.7775 1.21405 23.7774L1.22989 23.7335L1.2758 23.6067C1.31604 23.4959 1.3752 23.3335 1.45102 23.127C1.60263 22.7139 1.82088 22.124 2.08764 21.4163C2.62101 20.0012 3.34903 18.113 4.12659 16.2236C4.90305 14.3369 5.73342 12.4379 6.47136 11.0061C6.8391 10.2926 7.19257 9.67798 7.51246 9.2356C7.67147 9.01571 7.83502 8.82025 8.00066 8.67476ZM2.16046 24.1008C1.77584 25.4353 1.5 26.6174 1.5 28.0324C1.5 32.0388 4.76027 35.3228 8.82409 35.3743C8.86738 35.3621 8.91304 35.3555 8.96024 35.3555C10.0067 35.3555 11.0016 35.1412 11.9032 34.755C12.3033 34.579 12.6839 34.3681 13.0404 34.1255C13.0787 34.0994 13.1194 34.0793 13.1613 34.0651C15.1082 32.7382 16.3814 30.5167 16.3814 28.013C16.3814 27.203 16.2536 26.486 16.0651 25.7591C16.0592 25.7442 16.0539 25.729 16.0493 25.7133L15.5814 24.1109L15.58 24.1061C15.5768 24.0951 15.574 24.0841 15.5715 24.0731C15.5445 23.9838 15.5169 23.8927 15.489 23.7996L15.4798 23.7761L15.4319 23.6535C15.3897 23.5459 15.3276 23.3879 15.2479 23.1868C15.0886 22.7845 14.8592 22.2094 14.579 21.5193C14.0184 20.1386 13.2552 18.2992 12.4438 16.4609C11.6313 14.62 10.7751 12.7911 10.0283 11.4269C9.65361 10.7425 9.31539 10.1916 9.0314 9.81768C8.88851 9.62954 8.7721 9.50334 8.68398 9.42889C8.67922 9.42487 8.67469 9.42112 8.67037 9.41762C8.66722 9.42031 8.66396 9.42313 8.66057 9.4261C8.57496 9.5013 8.46167 9.62951 8.3228 9.82156C8.04693 10.2031 7.72044 10.7654 7.36024 11.4643C6.64231 12.8572 5.82489 14.7246 5.05134 16.6042C4.27891 18.4811 3.55472 20.3593 3.02338 21.769C2.75779 22.4736 2.54056 23.0607 2.38978 23.4715C2.3144 23.6769 2.25564 23.8382 2.21576 23.948L2.17039 24.0733L2.16046 24.1008Z" fill="white"/>
<path fill-rule="evenodd" clip-rule="evenodd" d="M18.7796 0.722509C18.878 0.636396 19.0616 0.5 19.3061 0.5C19.5468 0.5 19.7292 0.633254 19.8263 0.715948C19.9397 0.81254 20.0469 0.937111 20.1458 1.06809C20.3455 1.33252 20.5637 1.69362 20.7877 2.10379C21.238 2.92867 21.7472 4.01879 22.223 5.09698C22.7 6.17778 23.1482 7.25739 23.4769 8.06605C23.6413 8.47058 23.776 8.80777 23.8696 9.04399C23.9165 9.16211 23.953 9.255 23.9779 9.31847L24.0064 9.39109L24.0161 9.41596C24.0161 9.416 24.0162 9.41638 23.9479 9.443C23.9479 9.44301 23.9479 9.44299 23.9479 9.443L24.0161 9.41596C24.0197 9.42529 24.0232 9.43519 24.0263 9.44472C24.1617 9.86613 24.2866 10.2561 24.3706 10.6307C24.375 10.6503 24.3782 10.6698 24.3802 10.6893C24.4944 11.1467 24.5783 11.6302 24.5783 12.1731C24.5783 14.9713 22.2766 17.2431 19.4626 17.2431C16.6319 17.2431 14.3261 14.9737 14.3468 12.1712C14.3471 11.2339 14.517 10.4666 14.7585 9.64961C14.7612 9.64058 14.7641 9.63162 14.7673 9.62276L15.238 9.79136C14.7673 9.62276 14.7673 9.62284 14.7673 9.62276L14.7766 9.59683L14.8034 9.52257C14.8269 9.45767 14.8613 9.36268 14.9055 9.2419C14.9938 9.00035 15.1209 8.65556 15.2763 8.2419C15.5869 7.41501 16.0112 6.31103 16.4648 5.20582C16.9173 4.10334 17.4036 2.98846 17.8382 2.14472C18.0542 1.72523 18.2662 1.3555 18.4624 1.0845C18.5596 0.950279 18.6658 0.822112 18.7796 0.722509ZM15.7135 9.94677C15.4881 10.7113 15.3468 11.3733 15.3468 12.1731V12.177C15.3295 14.4084 17.1697 16.2431 19.4626 16.2431C20.2977 16.2431 21.0817 15.9847 21.7272 15.5529C21.7591 15.5316 21.7926 15.5144 21.827 15.5012C22.8858 14.7625 23.5783 13.5435 23.5783 12.1731C23.5783 11.6148 23.473 11.1392 23.3251 10.6166L23.1295 9.95245C23.1214 9.92494 23.1156 9.89684 23.1123 9.86928C23.1014 9.83512 23.0902 9.80042 23.0789 9.76516L23.0749 9.75499L23.0471 9.68382C23.0226 9.62135 22.9864 9.52953 22.94 9.41255C22.8473 9.17858 22.7136 8.84408 22.5504 8.44258C22.2239 7.63916 21.7797 6.56935 21.3081 5.50073C20.8354 4.42948 20.3397 3.37018 19.91 2.58299C19.6938 2.18713 19.5032 1.87653 19.3478 1.67077C19.3344 1.65298 19.3215 1.63647 19.3094 1.62118C19.2976 1.63655 19.2853 1.65313 19.2724 1.67101C19.1205 1.88078 18.9356 2.19788 18.7272 2.60258C18.3128 3.40722 17.8395 4.49018 17.3899 5.58554C16.9414 6.67817 16.521 7.77203 16.2125 8.59352C16.0583 9.00405 15.9322 9.34608 15.8447 9.58531C15.801 9.70491 15.7669 9.7988 15.7438 9.86268L15.7175 9.93544L15.7135 9.94677ZM19.4564 1.46087C19.4564 1.46113 19.4538 1.46315 19.4488 1.46613C19.4539 1.46211 19.4564 1.46061 19.4564 1.46087ZM19.1662 1.46779C19.1611 1.46481 19.1584 1.46278 19.1584 1.46251C19.1583 1.46225 19.1609 1.46374 19.1662 1.46779Z" fill="white"/>
<path fill-rule="evenodd" clip-rule="evenodd" d="M27.3977 12.9228C27.4858 12.8469 27.6587 12.7188 27.892 12.7188C28.12 12.7188 28.2915 12.841 28.3807 12.9148C28.4847 13.0009 28.5812 13.1106 28.6682 13.223C28.8441 13.4501 29.0341 13.7578 29.2271 14.1038C29.6156 14.8002 30.0529 15.7188 30.4603 16.6252C30.869 17.5343 31.2525 18.4422 31.5335 19.1221C31.6741 19.4622 31.7893 19.7457 31.8694 19.9444C31.9094 20.0437 31.9407 20.1218 31.962 20.1753L31.9863 20.2364L31.9947 20.2574C31.9947 20.2574 31.9948 20.2577 31.9665 20.269C31.9665 20.269 31.9664 20.269 31.9665 20.269L31.9947 20.2574C31.9978 20.2654 32.0009 20.2739 32.0037 20.2821C32.0129 20.3094 32.0219 20.3364 32.0309 20.3633C32.0459 20.3918 32.0583 20.4221 32.0678 20.4541C32.0935 20.5405 32.1203 20.6278 32.1476 20.7162C32.3164 21.2651 32.4992 21.8593 32.4992 22.5717C32.4992 24.9513 30.5657 26.8645 28.1632 26.9238C28.1251 26.9247 28.0868 26.9252 28.0485 26.9252C25.598 26.9252 23.5781 24.9938 23.5781 22.5911C23.5781 21.8065 23.7291 21.1348 23.9313 20.4541C23.9343 20.4442 23.9375 20.4344 23.941 20.4247L24.4106 20.5965C23.941 20.4247 23.941 20.4248 23.941 20.4247L23.9491 20.4029L23.9721 20.3404C23.9922 20.2859 24.0218 20.2061 24.0597 20.1046C24.1355 19.9017 24.2445 19.6121 24.3777 19.2647C24.644 18.5703 25.0078 17.643 25.3967 16.7145C25.7845 15.7887 26.2019 14.8504 26.5753 14.1392C26.7607 13.7859 26.9441 13.4714 27.1153 13.2392C27.2 13.1243 27.2945 13.0116 27.3977 12.9228ZM24.8855 20.7539C24.699 21.3839 24.5781 21.9477 24.5781 22.5911C24.5781 24.4097 26.1179 25.9252 28.0485 25.9252C28.7541 25.9252 29.4181 25.7207 29.9577 25.3535C29.9907 25.331 30.0254 25.313 30.0612 25.2994C30.9357 24.6893 31.4992 23.6919 31.4992 22.5717C31.4992 22.2053 31.4398 21.8875 31.3507 21.5539C31.3482 21.5468 31.3459 21.5395 31.3437 21.5322L31.183 20.9886C31.1452 20.8693 31.1042 20.7447 31.0601 20.6136L31.0569 20.6055L31.0332 20.5458C31.0123 20.4934 30.9814 20.4164 30.9419 20.3182C30.8627 20.1219 30.7487 19.8411 30.6094 19.5041C30.3305 18.8296 29.9513 17.9318 29.5482 17.0352C29.144 16.1359 28.7208 15.2488 28.3538 14.5909C28.1788 14.2772 28.0247 14.0304 27.8984 13.8626C27.7763 14.0337 27.6282 14.2848 27.4607 14.6039C27.1079 15.276 26.7039 16.1822 26.3191 17.1008C25.9355 18.0167 25.5756 18.9339 25.3114 19.6228C25.1794 19.9671 25.0714 20.2539 24.9965 20.4544C24.9591 20.5547 24.9299 20.6334 24.9101 20.6869L24.8877 20.7479L24.8855 20.7539ZM28.0611 13.6721C28.0611 13.6724 28.0586 13.6745 28.0536 13.6776C28.0587 13.6734 28.0612 13.6719 28.0611 13.6721ZM27.7386 13.6815C27.7336 13.6785 27.7311 13.6765 27.731 13.6763C27.731 13.676 27.7335 13.6775 27.7386 13.6815Z" fill="white"/>
<path fill-rule="evenodd" clip-rule="evenodd" d="M3.70703 27.339L3.70721 27.3405L3.70835 27.35C3.70947 27.3592 3.71135 27.3739 3.7141 27.3938C3.71961 27.4336 3.7286 27.494 3.74209 27.572C3.76909 27.7283 3.81393 27.9546 3.88447 28.2273C4.02606 28.7748 4.2685 29.4992 4.67077 30.2186C5.46838 31.645 6.87426 33.0318 9.40998 33.0318C9.68612 33.0318 9.90998 33.2557 9.90998 33.5318C9.90998 33.808 9.68612 34.0318 9.40998 34.0318C6.4107 34.0318 4.71659 32.3495 3.79796 30.7066C3.34212 29.8914 3.07238 29.0812 2.91632 28.4777C2.83803 28.175 2.78768 27.9217 2.75668 27.7423C2.74118 27.6525 2.73048 27.581 2.72354 27.5309C2.72007 27.5058 2.71754 27.486 2.71581 27.472L2.71381 27.4552L2.71323 27.4501L2.71304 27.4484L2.71297 27.4477C2.71294 27.4475 2.71291 27.4472 3.21 27.3934L2.71291 27.4472C2.68317 27.1727 2.88162 26.926 3.15615 26.8963C3.43049 26.8666 3.67699 27.0647 3.70703 27.3389L3.70703 27.3389M3.70703 27.339L3.70703 27.3389Z" fill="white"/>
<path fill-rule="evenodd" clip-rule="evenodd" d="M16.4749 11.0759C16.749 11.0458 16.9956 11.2434 17.0262 11.5173C17.0263 11.5177 17.0263 11.5181 17.0264 11.5185L16.5293 11.5729C17.0264 11.5185 17.0263 11.5182 17.0263 11.5181L17.0263 11.5177L17.0262 11.5173L17.0262 11.5173L17.0262 11.5173L17.0266 11.5206L17.0292 11.5399C17.0318 11.5583 17.0361 11.5873 17.0427 11.6254C17.056 11.7017 17.0783 11.8138 17.1135 11.9495C17.1845 12.2229 17.3053 12.5819 17.5035 12.9359C17.893 13.6317 18.5607 14.2873 19.776 14.2873C20.0522 14.2873 20.276 14.5112 20.276 14.7873C20.276 15.0635 20.0522 15.2873 19.776 15.2873C18.0967 15.2873 17.1411 14.3357 16.6309 13.4243C16.3792 12.9747 16.2311 12.53 16.1456 12.2008C16.1026 12.0352 16.0748 11.8961 16.0575 11.7966C16.0489 11.7469 16.0428 11.7068 16.0388 11.6781C16.0368 11.6637 16.0353 11.6522 16.0342 11.6437L16.033 11.6332L16.0326 11.6297L16.0324 11.6283L16.0324 11.6278C16.0323 11.6276 16.0323 11.6273 16.5293 11.5729L16.0323 11.6273C16.0022 11.3528 16.2004 11.1059 16.4749 11.0759Z" fill="white"/>
<path fill-rule="evenodd" clip-rule="evenodd" d="M25.8039 21.455C26.0779 21.425 26.3244 21.6223 26.3553 21.896L26.3555 21.898L26.3575 21.9128C26.3595 21.9272 26.363 21.9504 26.3683 21.9811C26.379 22.0426 26.3971 22.1335 26.4258 22.2439C26.4836 22.4665 26.5818 22.7576 26.7421 23.0439C27.0559 23.6042 27.5867 24.1243 28.5575 24.1243C28.8336 24.1243 29.0575 24.3481 29.0575 24.6243C29.0575 24.9004 28.8336 25.1243 28.5575 25.1243C27.1226 25.1243 26.3039 24.3082 25.8696 23.5324C25.6558 23.1506 25.5303 22.7738 25.4579 22.4953C25.4215 22.3551 25.3979 22.2372 25.3832 22.1526C25.3758 22.1103 25.3706 22.076 25.3671 22.0513L25.3632 22.0214L25.362 22.0121L25.3617 22.0088L25.3615 22.0076L25.3615 22.0071C25.3615 22.0068 25.3614 22.0066 25.8584 21.9521L25.3614 22.0066C25.3313 21.7321 25.5294 21.4852 25.8039 21.455Z" fill="white"/>
</svg>
