<svg width="16" height="15" viewBox="0 0 16 15" fill="none" xmlns="http://www.w3.org/2000/svg">
<g id="Buy">
<path id="Stroke 1" d="M1.06262 0.937378L2.62262 1.20738L3.34487 9.81213C3.40262 10.5149 3.98987 11.0541 4.69487 11.0519H12.8766C13.5494 11.0534 14.1201 10.5584 14.2154 9.89238L14.9271 4.97388C15.0066 4.42413 14.6249 3.91413 14.0759 3.83463C14.0279 3.82788 2.87312 3.82413 2.87312 3.82413" stroke="#0E3449" stroke-linecap="round" stroke-linejoin="round"/>
<path id="Stroke 3" d="M9.59387 6.59607H11.6736" stroke="#0E3449" stroke-linecap="round" stroke-linejoin="round"/>
<path id="Stroke 5" fill-rule="evenodd" clip-rule="evenodd" d="M4.36589 13.6519C4.59164 13.6519 4.77389 13.8349 4.77389 14.0599C4.77389 14.2856 4.59164 14.4686 4.36589 14.4686C4.14014 14.4686 3.95789 14.2856 3.95789 14.0599C3.95789 13.8349 4.14014 13.6519 4.36589 13.6519Z" fill="#0E3449" stroke="#0E3449" stroke-linecap="round" stroke-linejoin="round"/>
<path id="Stroke 7" fill-rule="evenodd" clip-rule="evenodd" d="M12.8261 13.6519C13.0518 13.6519 13.2348 13.8349 13.2348 14.0599C13.2348 14.2856 13.0518 14.4686 12.8261 14.4686C12.6003 14.4686 12.4181 14.2856 12.4181 14.0599C12.4181 13.8349 12.6003 13.6519 12.8261 13.6519Z" fill="#0E3449" stroke="#0E3449" stroke-linecap="round" stroke-linejoin="round"/>
</g>
</svg>
