<svg width="39" height="40" viewBox="0 0 39 40" fill="none" xmlns="http://www.w3.org/2000/svg">
<g id="SWM icons / broken / document-filled">
<path id="shape" d="M8.125 5.375V4.625C7.71079 4.625 7.375 4.96079 7.375 5.375H8.125ZM30.875 34.625V35.375C31.2892 35.375 31.625 35.0392 31.625 34.625H30.875ZM8.125 34.625H7.375C7.375 35.0392 7.71079 35.375 8.125 35.375V34.625ZM22.75 5.375L23.2803 4.84467C23.1397 4.70402 22.9489 4.625 22.75 4.625V5.375ZM30.875 13.5H31.625C31.625 13.3011 31.546 13.1103 31.4053 12.9697L30.875 13.5ZM13 27.375C12.5858 27.375 12.25 27.7108 12.25 28.125C12.25 28.5392 12.5858 28.875 13 28.875V27.375ZM26 28.875C26.4142 28.875 26.75 28.5392 26.75 28.125C26.75 27.7108 26.4142 27.375 26 27.375V28.875ZM13 20.875C12.5858 20.875 12.25 21.2108 12.25 21.625C12.25 22.0392 12.5858 22.375 13 22.375V20.875ZM22.75 22.375C23.1642 22.375 23.5 22.0392 23.5 21.625C23.5 21.2108 23.1642 20.875 22.75 20.875V22.375ZM30.125 20C30.125 20.4142 30.4608 20.75 30.875 20.75C31.2892 20.75 31.625 20.4142 31.625 20H30.125ZM31.625 26.5C31.625 26.0858 31.2892 25.75 30.875 25.75C30.4608 25.75 30.125 26.0858 30.125 26.5H31.625ZM7.375 8.625C7.375 9.03921 7.71079 9.375 8.125 9.375C8.53921 9.375 8.875 9.03921 8.875 8.625H7.375ZM8.875 15.125C8.875 14.7108 8.53921 14.375 8.125 14.375C7.71079 14.375 7.375 14.7108 7.375 15.125H8.875ZM30.875 33.875H8.125V35.375H30.875V33.875ZM8.125 6.125H22.75V4.625H8.125V6.125ZM22.2197 5.90533L30.3447 14.0303L31.4053 12.9697L23.2803 4.84467L22.2197 5.90533ZM20.375 5.375V11.875H21.875V5.375H20.375ZM24.375 15.875H30.875V14.375H24.375V15.875ZM20.375 11.875C20.375 14.0841 22.1659 15.875 24.375 15.875V14.375C22.9943 14.375 21.875 13.2557 21.875 11.875H20.375ZM13 28.875H26V27.375H13V28.875ZM13 22.375H22.75V20.875H13V22.375ZM30.125 13.5V20H31.625V13.5H30.125ZM30.125 26.5V34.625H31.625V26.5H30.125ZM8.875 8.625V5.375H7.375V8.625H8.875ZM8.875 34.625V15.125H7.375V34.625H8.875Z" fill="#007A8F"/>
</g>
</svg>
