<svg width="52" height="52" viewBox="0 0 52 52" fill="none" xmlns="http://www.w3.org/2000/svg">
<g clip-path="url(#clip0_1851_28083)">
<path fill-rule="evenodd" clip-rule="evenodd" d="M17.3342 30.4975C12.0403 30.4975 7.74876 34.7891 7.74876 40.083C7.74876 45.3768 12.0403 49.6684 17.3342 49.6684C22.6281 49.6684 26.9196 45.3768 26.9196 40.083C26.9196 34.7891 22.6281 30.4975 17.3342 30.4975ZM5.25293 40.083C5.25293 33.4107 10.6619 28.0017 17.3342 28.0017C24.0065 28.0017 29.4154 33.4107 29.4154 40.083C29.4154 46.7552 24.0065 52.1642 17.3342 52.1642C10.6619 52.1642 5.25293 46.7552 5.25293 40.083Z" fill="#007A8F"/>
<path fill-rule="evenodd" clip-rule="evenodd" d="M24.1163 48.6297L8.78711 33.3005L10.5519 31.5357L25.8811 46.8649L24.1163 48.6297Z" fill="#007A8F"/>
<path fill-rule="evenodd" clip-rule="evenodd" d="M40.0842 13.1644C34.7903 13.1644 30.4988 17.4559 30.4988 22.7498C30.4988 28.0437 34.7903 32.3352 40.0842 32.3352C45.3781 32.3352 49.6696 28.0437 49.6696 22.7498C49.6696 17.4559 45.3781 13.1644 40.0842 13.1644ZM28.0029 22.7498C28.0029 16.0775 33.4119 10.6686 40.0842 10.6686C46.7565 10.6686 52.1654 16.0775 52.1654 22.7498C52.1654 29.4221 46.7565 34.8311 40.0842 34.8311C33.4119 34.8311 28.0029 29.4221 28.0029 22.7498Z" fill="#007A8F"/>
<path fill-rule="evenodd" clip-rule="evenodd" d="M33.6113 31.5267L44.3905 12.7309L46.5556 13.9725L35.7764 32.7684L33.6113 31.5267Z" fill="#007A8F"/>
<path fill-rule="evenodd" clip-rule="evenodd" d="M11.9172 3.4146C6.62331 3.4146 2.33177 7.70613 2.33177 13C2.33177 18.2939 6.62331 22.5854 11.9172 22.5854C17.2111 22.5854 21.5026 18.2939 21.5026 13C21.5026 7.70613 17.2111 3.4146 11.9172 3.4146ZM-0.164062 13C-0.164062 6.32772 5.2449 0.918762 11.9172 0.918762C18.5895 0.918762 23.9984 6.32772 23.9984 13C23.9984 19.6723 18.5895 25.0813 11.9172 25.0813C5.2449 25.0813 -0.164062 19.6723 -0.164062 13Z" fill="#007A8F"/>
<path fill-rule="evenodd" clip-rule="evenodd" d="M22.0643 16.9817L1.12891 11.4296L1.76869 9.01715L22.7041 14.5692L22.0643 16.9817Z" fill="#007A8F"/>
</g>
<defs>
<clipPath id="clip0_1851_28083">
<rect width="52" height="52" fill="white"/>
</clipPath>
</defs>
</svg>
