<svg width="35" height="34" viewBox="0 0 35 34" fill="none" xmlns="http://www.w3.org/2000/svg">
<path fill-rule="evenodd" clip-rule="evenodd" d="M2.77773 24.3045C2.97372 24.499 2.9749 24.8156 2.78036 25.0116C1.07321 26.7315 1.07321 29.4917 2.78036 31.2116C4.48546 32.9295 7.21887 32.9295 8.92398 31.2116C9.11851 31.0156 9.43509 31.0145 9.63108 31.209C9.82707 31.4035 9.82824 31.7201 9.63371 31.9161C7.53749 34.028 4.16685 34.028 2.07063 31.9161C-0.0235435 29.8063 -0.0235435 26.4169 2.07063 24.3071C2.26517 24.1111 2.58175 24.11 2.77773 24.3045Z" fill="white"/>
<path fill-rule="evenodd" clip-rule="evenodd" d="M24.3748 1.5C24.0821 1.5 23.773 1.61637 23.5417 1.84937C23.0475 2.34728 23.0327 3.02567 23.4686 3.46481C23.6621 3.65977 23.6621 3.97433 23.4686 4.16928L2.78065 25.0117C2.58611 25.2076 2.26953 25.2088 2.07354 25.0143C1.87756 24.8197 1.87638 24.5032 2.07092 24.3072L22.4492 3.77675C21.9289 2.92725 22.1248 1.85738 22.832 1.1449C23.2586 0.715057 23.8267 0.5 24.3748 0.5C24.944 0.5 25.4929 0.717062 25.9175 1.1449L32.6064 7.88368C33.4578 8.74146 33.4578 10.1239 32.6064 10.9817C32.1797 11.4116 31.6117 11.6266 31.0636 11.6266C30.7011 11.6266 30.3368 11.5669 29.9939 11.3674L9.6157 31.8977C9.42116 32.0937 9.10458 32.0949 8.9086 31.9004C8.71261 31.7058 8.71143 31.3892 8.90597 31.1933L29.594 10.3509C29.6878 10.2563 29.8156 10.2031 29.9488 10.2031C30.0821 10.2031 30.2098 10.2563 30.3037 10.3509C30.5107 10.5595 30.7306 10.6266 31.0636 10.6266C31.3562 10.6266 31.6654 10.5102 31.8967 10.2772C32.3611 9.80937 32.3611 9.05602 31.8967 8.58815L25.2078 1.84937L25.5627 1.49713L25.2078 1.84937C24.9745 1.61437 24.6827 1.5 24.3748 1.5Z" fill="white"/>
<path fill-rule="evenodd" clip-rule="evenodd" d="M13.0195 13.5017C13.0195 13.2256 13.2434 13.0017 13.5195 13.0017H27.208C27.4841 13.0017 27.708 13.2256 27.708 13.5017C27.708 13.7778 27.4841 14.0017 27.208 14.0017H13.5195C13.2434 14.0017 13.0195 13.7778 13.0195 13.5017Z" fill="white"/>
<path fill-rule="evenodd" clip-rule="evenodd" d="M30.5181 18.0692C30.5874 18.0076 30.7466 17.8809 30.972 17.8809C31.1955 17.8809 31.354 18.0068 31.4206 18.0649C31.5047 18.1384 31.5797 18.2287 31.6439 18.3157C31.7744 18.4923 31.9134 18.728 32.0525 18.9879C32.3331 19.5122 32.6492 20.2016 32.943 20.8794C33.238 21.5597 33.5152 22.2388 33.7184 22.7471C33.8201 23.0015 33.9034 23.2135 33.9614 23.3621C33.9904 23.4364 34.0131 23.4949 34.0285 23.5349L34.0462 23.5807L34.0523 23.5968C34.0523 23.5968 34.0523 23.5968 34.0244 23.6076C34.0244 23.6076 34.0244 23.6075 34.0244 23.6076L34.0523 23.5968C34.0587 23.6134 34.0642 23.6305 34.0688 23.6477C34.0766 23.6774 34.0845 23.7064 34.0923 23.735C34.0951 23.7427 34.0977 23.7505 34.1002 23.7585C34.1097 23.7896 34.1193 23.821 34.129 23.8526C34.2642 24.2919 34.4144 24.7802 34.4144 25.3775C34.4144 27.2335 32.9147 28.7498 31.0634 28.7498C29.2141 28.7498 27.7108 27.235 27.7307 25.3746C27.731 24.7602 27.8344 24.2692 27.9886 23.745C27.991 23.7367 27.9937 23.7284 27.9966 23.7201L28.4683 23.8861C27.9966 23.7201 27.9966 23.7202 27.9966 23.7201L28.0024 23.7036L28.019 23.6569C28.0335 23.616 28.0548 23.5564 28.082 23.4805C28.1365 23.3288 28.2149 23.1124 28.3107 22.8528C28.5022 22.334 28.7639 21.6409 29.044 20.9465C29.323 20.2548 29.6246 19.5508 29.8957 19.0153C30.03 18.7499 30.1655 18.5086 30.2945 18.3275C30.358 18.2382 30.4328 18.1451 30.5181 18.0692ZM32.3841 27.3386C32.3774 27.3425 32.3707 27.3466 32.3641 27.3508C31.978 27.5998 31.5226 27.7498 31.0634 27.7498C29.7702 27.7498 28.7156 26.6885 28.7306 25.3833L28.7307 25.3775C28.7307 24.8929 28.8085 24.5035 28.9442 24.0398L28.9452 24.037L28.9613 23.9917C28.9754 23.9519 28.9963 23.8933 29.0232 23.8186C29.0768 23.6692 29.1542 23.4555 29.2489 23.199C29.4384 22.6856 29.6963 22.0025 29.9714 21.3205C30.2475 20.6359 30.5364 19.9636 30.7879 19.4669C30.8562 19.3319 30.9194 19.2148 30.9764 19.1168C31.035 19.2131 31.1001 19.3278 31.1708 19.4598C31.4316 19.947 31.7346 20.6062 32.0256 21.2772C32.3154 21.9456 32.5887 22.6151 32.7899 23.1183C32.8904 23.3697 32.9727 23.5791 33.0298 23.7255C33.0583 23.7987 33.0806 23.8562 33.0956 23.8952L33.1091 23.9301C33.1383 24.0392 33.1673 24.1397 33.1942 24.2318L33.3048 24.6281C33.3113 24.6511 33.3192 24.6733 33.3285 24.6945C33.3815 24.9171 33.4144 25.1342 33.4144 25.3775C33.4144 26.1928 33.0047 26.9116 32.3841 27.3386ZM31.1829 18.8163C31.1883 18.8115 31.1874 18.8132 31.1806 18.8184C31.1816 18.8175 31.1824 18.8168 31.1829 18.8163ZM30.7653 18.8204C30.7573 18.8145 30.7564 18.8125 30.7628 18.8181C30.7634 18.8187 30.7643 18.8194 30.7653 18.8204Z" fill="white"/>
</svg>
