<svg width="18" height="19" viewBox="0 0 18 19" fill="none" xmlns="http://www.w3.org/2000/svg">
<path fill-rule="evenodd" clip-rule="evenodd" d="M11.8127 6.12501C11.8127 6.87093 11.5164 7.5863 10.9889 8.11374C10.4615 8.6412 9.74611 8.93751 9.00019 8.93751C8.25427 8.93751 7.53891 8.6412 7.01146 8.11374C6.48401 7.5863 6.18769 6.87093 6.18769 6.12501C6.18769 5.37909 6.48401 4.66371 7.01146 4.13627C7.53891 3.60882 8.25427 3.31251 9.00019 3.31251C9.74611 3.31251 10.4615 3.60882 10.9889 4.13627C11.5164 4.66371 11.8127 5.37909 11.8127 6.12501ZM11.8813 9.58214C12.5915 8.98998 13.1021 8.19341 13.3436 7.30079C13.585 6.40816 13.5455 5.46284 13.2306 4.59341C12.9158 3.72399 12.3407 2.97268 11.5836 2.44169C10.8266 1.91072 9.92432 1.62585 8.99963 1.62585C8.07494 1.62585 7.17269 1.91072 6.41564 2.44169C5.65859 2.97268 5.08349 3.72399 4.76861 4.59341C4.45371 5.46284 4.41429 6.40816 4.65572 7.30079C4.89716 8.19341 5.40772 8.98998 6.11794 9.58214C5.01048 10.1057 4.06625 10.9206 3.38633 11.9396C2.70641 12.9586 2.31641 14.1432 2.25807 15.3669C2.25265 15.5874 2.33376 15.8012 2.48406 15.9626C2.63435 16.124 2.84186 16.2202 3.06218 16.2304C3.28249 16.2408 3.49808 16.1644 3.66277 16.0177C3.82745 15.871 3.92816 15.6657 3.94332 15.4456C4.00465 14.1457 4.56421 12.9193 5.50584 12.0211C6.44747 11.1229 7.69884 10.6217 9.00019 10.6217C10.3015 10.6217 11.5529 11.1229 12.4946 12.0211C13.4362 12.9193 13.9958 14.1457 14.0571 15.4456C14.0599 15.558 14.085 15.6686 14.1311 15.7711C14.1772 15.8736 14.2434 15.9658 14.3256 16.0423C14.4078 16.1189 14.5046 16.1783 14.61 16.217C14.7155 16.2557 14.8277 16.273 14.94 16.2677C15.0522 16.2625 15.1623 16.2348 15.2637 16.1864C15.3651 16.1381 15.4559 16.07 15.5306 15.9861C15.6054 15.9022 15.6626 15.8042 15.6989 15.6979C15.7353 15.5915 15.7501 15.4789 15.7423 15.3669C15.6838 14.1431 15.2937 12.9584 14.6136 11.9393C13.9334 10.9204 12.989 10.1056 11.8813 9.58214Z" fill="#0E3449"/>
</svg>
