<svg width="32" height="32" viewBox="0 0 32 32" fill="none" xmlns="http://www.w3.org/2000/svg">
<path fill-rule="evenodd" clip-rule="evenodd" d="M26.4301 2.19659C26.8775 1.7492 27.4843 1.49786 28.117 1.49786C28.7497 1.49786 29.3565 1.7492 29.8039 2.19659C30.2513 2.64398 30.5026 3.25077 30.5026 3.88347C30.5026 4.51618 30.2513 5.12297 29.8039 5.57036L28.6035 6.77082C29.119 7.93558 29.2894 9.22688 29.0899 10.4902C28.8713 11.8745 28.2198 13.1541 27.229 14.1453L14.6873 26.687L13.9801 25.9799L26.5218 13.4383C26.5218 13.4383 26.5217 13.4383 26.5218 13.4383C27.3632 12.5966 27.9165 11.5098 28.1021 10.3342C28.2878 9.15851 28.0962 7.95424 27.555 6.89416L27.3897 6.57034L29.0968 4.86325C29.3567 4.6034 29.5026 4.25096 29.5026 3.88347C29.5026 3.51599 29.3567 3.16355 29.0968 2.90369C28.837 2.64384 28.4845 2.49786 28.117 2.49786C27.7495 2.49786 27.3971 2.64384 27.1372 2.90369L25.4218 4.61911L25.098 4.4538C24.0379 3.9126 22.8337 3.72108 21.658 3.90671C20.4823 4.09235 19.3956 4.64559 18.5539 5.48709L6.02058 18.0204L5.31348 17.3133L17.8468 4.77992C18.838 3.78905 20.1176 3.13754 21.502 2.91895C22.7653 2.71949 24.0566 2.88982 25.2213 3.40538L26.4301 2.19659Z" fill="white"/>
<path fill-rule="evenodd" clip-rule="evenodd" d="M3.21667 16.4979C2.84918 16.4979 2.49675 16.6438 2.23689 16.9037C1.97704 17.1635 1.83105 17.516 1.83105 17.8835C1.83105 18.251 1.97704 18.6034 2.23689 18.8633L13.1369 29.7633L13.1373 29.7637C13.3308 29.9576 13.5775 30.0898 13.8461 30.1433C14.1148 30.1969 14.3933 30.1695 14.6464 30.0646C14.8994 29.9597 15.1157 29.782 15.2676 29.5541C15.4196 29.3262 15.5005 29.0583 15.5 28.7843V28.7826C15.5003 28.6008 15.4648 28.4208 15.3955 28.2527C15.3262 28.0848 15.2246 27.9322 15.0964 27.8036C15.0963 27.8035 15.0961 27.8034 15.096 27.8033L4.19645 16.9037C3.9366 16.6438 3.58416 16.4979 3.21667 16.4979ZM1.52979 16.1966C1.97718 15.7492 2.58397 15.4979 3.21667 15.4979C3.84938 15.4979 4.45617 15.7492 4.90356 16.1966L15.8036 27.0966L15.804 27.097C16.0252 27.3187 16.2005 27.5819 16.3199 27.8714C16.4392 28.1607 16.5004 28.4706 16.5 28.7835C16.5006 29.2551 16.3613 29.7164 16.0996 30.1089C15.8378 30.5016 15.4653 30.8077 15.0293 30.9884C14.5933 31.1691 14.1134 31.2163 13.6506 31.124C13.1879 31.0318 12.7631 30.8043 12.4298 30.4704M12.4294 30.4699L1.52979 19.5704C1.0824 19.123 0.831055 18.5162 0.831055 17.8835C0.831055 17.2508 1.0824 16.644 1.52979 16.1966M16.5 28.7835C16.5 28.7838 16.5 28.784 16.5 28.7843L16 28.7835L16.5 28.7826C16.5 28.7829 16.5 28.7832 16.5 28.7835Z" fill="white"/>
</svg>
