<svg width="16" height="16" viewBox="0 0 16 16" fill="none" xmlns="http://www.w3.org/2000/svg">
<g clip-path="url(#clip0_1838_22462)">
<path fill-rule="evenodd" clip-rule="evenodd" d="M0.666504 0.666748H5.21304L6.05686 4.88586L4.27577 6.66696C4.96632 9.10856 6.89136 11.0336 9.33296 11.7242L11.1141 9.94306L15.3332 10.7869V15.3334H11.3332C5.44213 15.3334 0.666504 10.5578 0.666504 4.66675V0.666748ZM1.99984 2.00008V4.66675C1.99984 9.82141 6.17851 14.0001 11.3332 14.0001H13.9998V11.88L11.5523 11.3904L9.74635 13.1964L9.3867 13.1138C6.16259 12.3737 3.62624 9.83732 2.8861 6.61322L2.80354 6.25357L4.60948 4.44763L4.11997 2.00008H1.99984Z" fill="#0E3449"/>
</g>
<defs>
<clipPath id="clip0_1838_22462">
<rect width="16" height="16" fill="white"/>
</clipPath>
</defs>
</svg>
