<svg width="18" height="19" viewBox="0 0 18 19" fill="none" xmlns="http://www.w3.org/2000/svg">
<path fill-rule="evenodd" clip-rule="evenodd" d="M1.8887 9.42311C2.35286 8.72481 3.28568 7.45421 4.55029 6.36662C5.82263 5.27236 7.3433 4.4375 9.00001 4.4375C10.6567 4.4375 12.1775 5.27236 13.4497 6.36662C14.7143 7.45421 15.6472 8.72481 16.1114 9.42311C16.1438 9.47188 16.1438 9.52812 16.1114 9.57689C15.6472 10.2752 14.7143 11.5458 13.4497 12.6334C12.1775 13.7276 10.6567 14.5625 9.00001 14.5625C7.3433 14.5625 5.82263 13.7276 4.55029 12.6334C3.28568 11.5458 2.35286 10.2752 1.8887 9.57689C1.85627 9.52812 1.85627 9.47188 1.8887 9.42311ZM9.00001 2.75C6.77098 2.75 4.87034 3.86563 3.44995 5.0872C2.02183 6.31542 0.990511 7.72595 0.483339 8.48895C0.074726 9.10367 0.0747275 9.89633 0.483339 10.511C0.990512 11.274 2.02183 12.6845 3.44995 13.9128C4.87034 15.1343 6.77098 16.25 9.00001 16.25C11.229 16.25 13.1297 15.1343 14.5501 13.9128C15.9782 12.6845 17.0096 11.274 17.5167 10.511C17.9253 9.89633 17.9253 9.10367 17.5167 8.48895C17.0096 7.72595 15.9782 6.31542 14.5501 5.0872C13.1297 3.86563 11.229 2.75 9.00001 2.75ZM9 11.75C10.2426 11.75 11.25 10.7426 11.25 9.5C11.25 8.25736 10.2426 7.25 9 7.25C7.75736 7.25 6.75 8.25736 6.75 9.5C6.75 10.7426 7.75736 11.75 9 11.75Z" fill="#0E3449"/>
</svg>
