<svg width="29" height="38" viewBox="0 0 29 38" fill="none" xmlns="http://www.w3.org/2000/svg">
<path fill-rule="evenodd" clip-rule="evenodd" d="M10.3426 0.851102C10.5333 0.682476 10.8012 0.5 11.12 0.5C11.4335 0.5 11.701 0.675347 11.8948 0.839997C12.1043 1.01799 12.3175 1.26189 12.5306 1.54459C12.9588 2.1124 13.4386 2.90674 13.9432 3.83651C14.9548 5.70063 16.1016 8.17626 17.1782 10.6398C18.2559 13.106 19.2679 15.5709 20.0102 17.4186C20.3815 18.3426 20.6854 19.1127 20.8967 19.652C21.0023 19.9217 21.0847 20.1336 21.1408 20.2782L21.2047 20.4435L21.2264 20.4997C21.2264 20.4999 21.2268 20.5007 20.76 20.68L21.2268 20.5007C21.2306 20.5106 21.2341 20.5207 21.2372 20.5309C21.5366 21.4887 21.801 22.3424 22.0051 23.1587C22.0721 23.4266 21.9092 23.6981 21.6413 23.7651C21.3734 23.832 21.1019 23.6692 21.0349 23.4013C20.8401 22.6218 20.5862 21.8001 20.2876 20.8445L20.2718 20.8035L20.2084 20.6397C20.1527 20.4961 20.0707 20.2852 19.9655 20.0167C19.7552 19.4797 19.4523 18.7124 19.0823 17.7914C18.3421 15.9491 17.3341 13.494 16.2618 11.0402C15.1884 8.58373 14.0552 6.13937 13.0643 4.31349C12.5676 3.39826 12.1156 2.6551 11.7322 2.14666C11.5396 1.89124 11.3771 1.71233 11.2473 1.60203C11.1875 1.55121 11.1463 1.52492 11.1222 1.5116C11.0992 1.5251 11.0605 1.55117 11.0048 1.60036C10.8783 1.71219 10.72 1.89429 10.5329 2.15513C10.1605 2.67417 9.72442 3.43309 9.24722 4.36795C8.29527 6.23287 7.21419 8.72951 6.19313 11.2385C5.17317 13.7447 4.21756 16.2522 3.51669 18.1339C3.16633 19.0745 2.8798 19.8583 2.68092 20.4068C2.58148 20.681 2.50396 20.8964 2.45134 21.0431L2.39146 21.2104L2.37623 21.2531C1.86347 23.0299 1.5 24.6342 1.5 26.54C1.5 32.0439 5.95615 36.5 11.46 36.5C13.5195 36.5 15.4207 35.8903 16.9969 34.8078C17.2246 34.6515 17.5358 34.7093 17.6922 34.9369C17.8485 35.1646 17.7907 35.4758 17.5631 35.6322C15.8193 36.8297 13.7205 37.5 11.46 37.5C5.40386 37.5 0.5 32.5962 0.5 26.54C0.5 24.491 0.894616 22.7787 1.41965 20.9612C1.42243 20.9516 1.4255 20.9421 1.42885 20.9326L1.90001 21.1C1.42885 20.9326 1.42879 20.9328 1.42885 20.9326L1.44965 20.8743L1.51006 20.7055C1.56305 20.5577 1.64096 20.3413 1.74082 20.0659C1.94053 19.5151 2.22807 18.7286 2.57958 17.7849C3.28246 15.8978 4.24185 13.3803 5.26689 10.8615C6.29083 8.3455 7.38475 5.81713 8.35655 3.9133C8.84123 2.96379 9.30416 2.15239 9.72039 1.57221C9.92755 1.28345 10.136 1.0337 10.3426 0.851102Z" fill="white"/>
<path fill-rule="evenodd" clip-rule="evenodd" d="M21.3397 23.78C17.9376 23.78 15.1797 26.5379 15.1797 29.94C15.1797 33.3421 17.9376 36.1 21.3397 36.1C24.7418 36.1 27.4997 33.3421 27.4997 29.94C27.4997 26.5379 24.7418 23.78 21.3397 23.78ZM14.1797 29.94C14.1797 25.9856 17.3853 22.78 21.3397 22.78C25.294 22.78 28.4997 25.9856 28.4997 29.94C28.4997 33.8943 25.294 37.1 21.3397 37.1C17.3853 37.1 14.1797 33.8943 14.1797 29.94Z" fill="white"/>
<path d="M24.2402 28.8599H22.4202V27.0399C22.4202 26.9399 22.3402 26.8399 22.2202 26.8399H20.4602C20.3402 26.8399 20.2602 26.9199 20.2602 27.0399V28.8599H18.4402C18.3402 28.8599 18.2402 28.9399 18.2402 29.0599V30.8199C18.2402 30.9199 18.3202 31.0199 18.4402 31.0199H20.2602V32.8399C20.2602 32.9399 20.3402 33.0399 20.4602 33.0399H22.2202C22.3202 33.0399 22.4202 32.9599 22.4202 32.8399V31.0199H24.2402C24.3602 31.0199 24.4402 30.9399 24.4402 30.8199V29.0599C24.4402 28.9599 24.3602 28.8599 24.2402 28.8599Z" fill="white"/>
</svg>
