<svg width="60" height="60" viewBox="0 0 60 60" fill="none" xmlns="http://www.w3.org/2000/svg">
<path fill-rule="evenodd" clip-rule="evenodd" d="M5.00208 10.0021H26.2479V43.125C26.2479 45.9424 25.1287 48.6443 23.1365 50.6365C21.1443 52.6287 18.4424 53.7479 15.625 53.7479C12.8076 53.7479 10.1056 52.6287 8.11346 50.6365C6.12127 48.6443 5.00208 45.9424 5.00208 43.125V10.0021ZM7.49791 12.4979V43.125C7.49791 45.2804 8.35415 47.3476 9.87828 48.8717C11.4024 50.3958 13.4696 51.2521 15.625 51.2521C17.7804 51.2521 19.8476 50.3958 21.3717 48.8717C22.8958 47.3476 23.7521 45.2804 23.7521 43.125V12.4979H7.49791Z" fill="#007A8F"/>
<path fill-rule="evenodd" clip-rule="evenodd" d="M33.7523 10.0021H54.9982V43.125C54.9982 45.9424 53.879 48.6443 51.8868 50.6365C49.8946 52.6287 47.1926 53.7479 44.3752 53.7479C41.5579 53.7479 38.8559 52.6287 36.8637 50.6365C34.8715 48.6443 33.7523 45.9424 33.7523 43.125V10.0021ZM36.2482 12.4979V43.125C36.2482 45.2804 37.1044 47.3476 38.6285 48.8717C40.1526 50.3958 42.2198 51.2521 44.3752 51.2521C46.5307 51.2521 48.5978 50.3958 50.122 48.8717C51.6461 47.3476 52.5023 45.2804 52.5023 43.125V12.4979H36.2482Z" fill="#007A8F"/>
<path fill-rule="evenodd" clip-rule="evenodd" d="M28.7499 12.4975H2.49988V10.0017H28.7499V12.4975Z" fill="#007A8F"/>
<path fill-rule="evenodd" clip-rule="evenodd" d="M57.5002 12.4979H31.2502V10.0021H57.5002V12.4979Z" fill="#007A8F"/>
<path fill-rule="evenodd" clip-rule="evenodd" d="M25 24.9977H6.25V22.5018H25V24.9977Z" fill="#007A8F"/>
<path fill-rule="evenodd" clip-rule="evenodd" d="M53.7502 36.2477H35.0002V33.7518H53.7502V36.2477Z" fill="#007A8F"/>
</svg>
