<svg width="33" height="33" viewBox="0 0 33 33" fill="none" xmlns="http://www.w3.org/2000/svg">
<path fill-rule="evenodd" clip-rule="evenodd" d="M9.625 13.0625C9.625 12.6828 9.93279 12.375 10.3125 12.375H22.6875C23.0672 12.375 23.375 12.6828 23.375 13.0625V23.375C23.375 23.7547 23.0672 24.0625 22.6875 24.0625H10.3125C9.93279 24.0625 9.625 23.7547 9.625 23.375V13.0625ZM11 17.1875V19.25H13.75V17.1875H11ZM11 22.6875V20.625H13.75V22.6875H11ZM15.125 22.6875V20.625H17.875V22.6875H15.125ZM19.25 22.6875V20.625H22V22.6875H19.25ZM19.25 17.1875V19.25H22V17.1875H19.25ZM15.125 19.25H17.875V17.1875H15.125V19.25ZM11 15.8125H22V13.75H11V15.8125Z" fill="#007A8F"/>
<path fill-rule="evenodd" clip-rule="evenodd" d="M6.875 3.4375C6.875 3.05781 7.18279 2.75 7.5625 2.75H21.3125C21.4948 2.75 21.6697 2.82244 21.7986 2.95136L25.9236 7.07637C26.0525 7.20528 26.125 7.38018 26.125 7.5625V29.5625C26.125 29.9422 25.8172 30.25 25.4375 30.25H7.5625C7.18279 30.25 6.875 29.9422 6.875 29.5625V3.4375ZM8.25 4.125V28.875H24.75V8.25H21.3125C20.9328 8.25 20.625 7.94221 20.625 7.5625V4.125H8.25ZM22 5.09727V6.875H23.7777L22 5.09727Z" fill="#007A8F"/>
</svg>
