<svg width="24" height="24" viewBox="0 0 24 24" fill="none" xmlns="http://www.w3.org/2000/svg">
<g id="Iconly/Light/Call">
<g id="Call">
<path id="Stroke 1 (Stroke)" fill-rule="evenodd" clip-rule="evenodd" d="M4.12339 4.79512C4.08099 4.84275 4.03588 4.88664 4.01083 4.91101C4.00795 4.9138 4.00534 4.91634 4.00303 4.9186L3.99954 4.92201C3.95707 4.96349 3.9157 5.00391 3.8702 5.0518C3.77875 5.14806 3.67595 5.26939 3.58048 5.42407C3.39583 5.72328 3.21305 6.18743 3.25647 6.89829C3.34607 8.36515 4.40884 10.9843 8.71486 15.2892C13.0204 19.5935 15.6391 20.6548 17.1054 20.7435C17.816 20.7866 18.2798 20.6035 18.5789 20.4187C18.7335 20.3231 18.8548 20.2203 18.9511 20.1287C18.9989 20.0833 19.0392 20.042 19.0806 19.9995L19.0843 19.9957C19.0866 19.9934 19.0891 19.9908 19.0919 19.988C19.1163 19.9629 19.1603 19.9176 19.2081 19.8751C19.9566 19.1248 20.3773 18.5852 20.5869 18.1752C20.7819 17.7938 20.7713 17.5743 20.712 17.3952C20.6346 17.1611 20.4338 16.8774 20.0157 16.4487C19.8135 16.2413 19.5805 16.0192 19.3114 15.7633L19.2961 15.7487C19.0341 15.4995 18.7431 15.2227 18.4354 14.9151C18.4354 14.9151 18.4354 14.9152 18.4354 14.9151C17.9095 14.3896 17.5656 14.319 17.3133 14.3257C17.159 14.3298 16.9882 14.3651 16.7704 14.4324C16.6617 14.4659 16.5495 14.5047 16.4235 14.5488C16.411 14.5532 16.3983 14.5576 16.3855 14.5621C16.273 14.6015 16.1495 14.6448 16.0233 14.6857C15.4462 14.8726 14.7225 15.0411 13.8406 14.8251C12.9747 14.6129 12.0544 14.0553 11.0015 13.0027C9.94859 11.9501 9.39062 11.0298 9.17808 10.164C8.96158 9.28209 9.12951 8.55829 9.31596 7.98096C9.35673 7.85473 9.39987 7.73124 9.43916 7.61879C9.44365 7.60592 9.4481 7.59319 9.45249 7.58061C9.4965 7.4545 9.53516 7.34228 9.56863 7.23351C9.63569 7.01556 9.67092 6.84466 9.67485 6.69026C9.68128 6.43767 9.61028 6.09353 9.08424 5.56763C8.7724 5.25588 8.49236 4.96114 8.24066 4.69622L8.23575 4.69106C7.97976 4.42163 7.75792 4.18835 7.55066 3.9857C7.1221 3.56669 6.83908 3.36561 6.60556 3.28795C6.42754 3.22876 6.20877 3.21767 5.82702 3.41295C5.41661 3.6229 4.87593 4.04451 4.12339 4.79512ZM9.32347 3.65816C9.5776 3.92564 9.84656 4.20872 10.1448 4.50682C10.8886 5.25051 11.1936 5.97204 11.1744 6.72845C11.1654 7.07856 11.0874 7.39799 11.0023 7.6746C10.9597 7.81311 10.9126 7.94924 10.8687 8.07482C10.8643 8.08753 10.8599 8.10013 10.8555 8.11263C10.8155 8.22731 10.7783 8.33371 10.7434 8.44195C10.593 8.90749 10.5147 9.31711 10.6348 9.8064C10.7589 10.3118 11.1204 11.0005 12.062 11.9419C13.0037 12.8833 13.6923 13.2444 14.1975 13.3682C14.6865 13.488 15.0958 13.4094 15.561 13.2587C15.6693 13.2236 15.7757 13.1864 15.8905 13.1462C15.9029 13.1418 15.9153 13.1374 15.9279 13.133C16.0534 13.0891 16.1895 13.0419 16.3279 12.9991C16.6044 12.9138 16.9237 12.8354 17.2738 12.8262C18.0302 12.8063 18.7518 13.1108 19.4958 13.8542C19.7901 14.1485 20.0698 14.4144 20.3341 14.6659L20.3452 14.6764C20.6096 14.928 20.8641 15.1701 21.0896 15.4014C21.5272 15.85 21.9435 16.3418 22.1361 16.924C22.347 17.5612 22.2595 18.1988 21.9224 18.8581C21.6017 19.4854 21.0402 20.1645 20.2495 20.955C20.2344 20.9701 20.2187 20.9846 20.2023 20.9983C20.2012 20.9997 20.189 21.0115 20.1576 21.0436L20.1509 21.0505C20.1107 21.0917 20.0533 21.1506 19.9848 21.2157C19.8377 21.3555 19.6346 21.5296 19.3675 21.6947C18.8232 22.0311 18.0547 22.3038 17.0148 22.2408C14.9801 22.1176 12.0258 20.7202 7.65435 16.35C3.2823 11.9791 1.88356 9.0247 1.75926 6.98974C1.69573 5.9497 1.96791 5.18089 2.304 4.6363C2.46891 4.36908 2.64292 4.16581 2.78272 4.01866C2.84797 3.94998 2.9069 3.89243 2.94811 3.85218C2.95041 3.84994 2.95265 3.84775 2.95484 3.84562C2.98727 3.81394 2.99903 3.80178 3.00028 3.80076C3.01404 3.78441 3.02851 3.76866 3.04363 3.75354C3.83609 2.96102 4.51621 2.39863 5.14389 2.07754C5.80369 1.74002 6.44156 1.65266 7.07886 1.86459C7.66066 2.05805 8.15162 2.47545 8.5993 2.91315C8.82902 3.13775 9.06962 3.39099 9.31949 3.65398L9.32347 3.65816Z" fill="#007A8F"/>
</g>
</g>
</svg>
