<svg width="34" height="34" viewBox="0 0 34 34" fill="none" xmlns="http://www.w3.org/2000/svg">
<path fill-rule="evenodd" clip-rule="evenodd" d="M17 1.5C8.43959 1.5 1.5 8.43959 1.5 17C1.5 25.5604 8.43959 32.5 17 32.5C25.5604 32.5 32.5 25.5604 32.5 17C32.5 8.43959 25.5604 1.5 17 1.5ZM0.5 17C0.5 7.8873 7.8873 0.5 17 0.5C26.1127 0.5 33.5 7.8873 33.5 17C33.5 26.1127 26.1127 33.5 17 33.5C7.8873 33.5 0.5 26.1127 0.5 17Z" fill="white"/>
<path fill-rule="evenodd" clip-rule="evenodd" d="M29.0985 5.7961C29.2872 5.99772 29.2767 6.31412 29.0751 6.50282L24.9151 10.3962C24.9034 10.4072 24.8911 10.4176 24.8783 10.4274L24.5735 10.0311C24.8783 10.4274 24.8786 10.4272 24.8789 10.427L24.8794 10.4266L24.8802 10.426L24.8688 10.4354C24.8568 10.4456 24.8365 10.4634 24.8093 10.4891C24.7548 10.5405 24.6728 10.6235 24.5746 10.7405C24.3783 10.9745 24.117 11.3449 23.8811 11.8728C23.4119 12.9229 23.0289 14.6282 23.5007 17.1756L23.502 17.1827L23.5019 17.1828C23.5108 17.2348 23.52 17.2887 23.5295 17.344C23.6687 18.1573 23.8646 19.302 23.8646 20.2C23.8646 22.7718 23.1233 25.1203 21.9009 26.8387C20.6794 28.5559 18.9469 29.6778 16.9824 29.6778C15.0179 29.6778 13.2853 28.5559 12.0638 26.8387C10.8414 25.1203 10.1001 22.7718 10.1001 20.2C10.1001 19.286 10.2679 18.2719 10.403 17.4555C10.4173 17.3693 10.4311 17.2853 10.4444 17.2039L10.4462 17.1931L10.4463 17.1931C10.9179 14.6552 10.5353 12.9451 10.0654 11.8874C9.82918 11.3556 9.56743 10.981 9.37058 10.7437C9.27209 10.6249 9.18979 10.5405 9.13502 10.4881C9.10765 10.4619 9.08718 10.4437 9.07505 10.4332L9.0633 10.4233C9.06244 10.4226 9.06216 10.4224 9.06246 10.4226L9.06336 10.4233L9.06415 10.4239L9.06463 10.4243C9.05273 10.415 9.04125 10.4051 9.03025 10.3947L4.9058 6.50135C4.705 6.3118 4.69588 5.99535 4.88543 5.79454C5.07499 5.59373 5.39144 5.58461 5.59224 5.77416L9.7036 9.65515C9.71054 9.66091 9.71887 9.66794 9.72851 9.67626C9.75315 9.69753 9.78634 9.72725 9.82657 9.76576C9.90701 9.84277 10.0157 9.95504 10.1402 10.1052C10.3895 10.4057 10.7022 10.8577 10.9793 11.4814C11.5357 12.734 11.9352 14.6489 11.4305 17.3704C11.4175 17.4499 11.4042 17.5307 11.3907 17.6124C11.2537 18.4428 11.1001 19.3736 11.1001 20.2C11.1001 22.5882 11.79 24.7286 12.8787 26.2591C13.9683 27.7907 15.4269 28.6778 16.9824 28.6778C18.5379 28.6778 19.9965 27.7907 21.086 26.2591C22.1748 24.7286 22.8646 22.5882 22.8646 20.2C22.8646 19.3914 22.6826 18.3254 22.5399 17.49C22.532 17.444 22.5243 17.3986 22.5167 17.3541C22.0117 14.6234 22.4108 12.7121 22.9681 11.4649C23.2455 10.844 23.5587 10.3955 23.8085 10.0978C23.9333 9.94898 24.0423 9.83792 24.123 9.76176C24.1634 9.72367 24.1967 9.69429 24.2215 9.67325C24.2307 9.66539 24.2388 9.65869 24.2456 9.65313L28.3918 5.7727C28.5934 5.584 28.9098 5.59448 29.0985 5.7961Z" fill="white"/>
<path fill-rule="evenodd" clip-rule="evenodd" d="M15.4189 18.0471C14.9347 19.0363 14.6211 20.4379 14.6211 22.0133C14.6211 23.5888 14.9347 24.9904 15.4189 25.9796C15.9193 27.0018 16.5157 27.4333 17.0189 27.4333C17.5221 27.4333 18.1185 27.0018 18.6188 25.9796C19.103 24.9904 19.4167 23.5888 19.4167 22.0133C19.4167 20.4379 19.103 19.0363 18.6188 18.0471C18.1185 17.0249 17.5221 16.5933 17.0189 16.5933C16.5157 16.5933 15.9193 17.0249 15.4189 18.0471ZM14.5208 17.6074C15.0692 16.487 15.9217 15.5933 17.0189 15.5933C18.1161 15.5933 18.9686 16.487 19.517 17.6074C20.0816 18.7609 20.4167 20.3192 20.4167 22.0133C20.4167 23.7074 20.0816 25.2658 19.517 26.4192C18.9686 27.5396 18.1161 28.4333 17.0189 28.4333C15.9217 28.4333 15.0692 27.5396 14.5208 26.4192C13.9562 25.2658 13.6211 23.7074 13.6211 22.0133C13.6211 20.3192 13.9562 18.7609 14.5208 17.6074Z" fill="white"/>
<path fill-rule="evenodd" clip-rule="evenodd" d="M16.4345 22.2558C16.2002 22.8007 16.043 23.5883 16.043 24.4845C16.043 25.3807 16.2002 26.1682 16.4345 26.7131C16.552 26.9864 16.6791 27.1757 16.7948 27.2895C16.9083 27.4011 16.9833 27.4156 17.0185 27.4156C17.0538 27.4156 17.1288 27.4011 17.2423 27.2895C17.3579 27.1757 17.485 26.9864 17.6026 26.7131C17.8369 26.1682 17.9941 25.3807 17.9941 24.4845C17.9941 23.5883 17.8369 22.8007 17.6026 22.2558C17.485 21.9825 17.3579 21.7932 17.2423 21.6795C17.1288 21.5679 17.0538 21.5534 17.0185 21.5534C16.9833 21.5534 16.9083 21.5679 16.7948 21.6795C16.6791 21.7932 16.552 21.9825 16.4345 22.2558ZM16.0936 20.9665C16.3332 20.7309 16.6463 20.5534 17.0185 20.5534C17.3907 20.5534 17.7039 20.7309 17.9435 20.9665C18.1809 21.2 18.3717 21.5132 18.5212 21.8608C18.821 22.5577 18.9941 23.4857 18.9941 24.4845C18.9941 25.4832 18.821 26.4112 18.5212 27.1082C18.3717 27.4558 18.1809 27.7689 17.9435 28.0024C17.7039 28.2381 17.3907 28.4156 17.0185 28.4156C16.6463 28.4156 16.3332 28.2381 16.0936 28.0024C15.8562 27.7689 15.6653 27.4558 15.5158 27.1082C15.2161 26.4112 15.043 25.4832 15.043 24.4845C15.043 23.4857 15.2161 22.5577 15.5158 21.8608C15.6653 21.5132 15.8562 21.2 16.0936 20.9665Z" fill="white"/>
</svg>
