<svg width="18" height="19" viewBox="0 0 18 19" fill="none" xmlns="http://www.w3.org/2000/svg">
<path fill-rule="evenodd" clip-rule="evenodd" d="M8.99609 13.57C8.68559 13.57 8.43359 13.318 8.43359 13.0075V11.1047C8.43359 10.7942 8.68559 10.5422 8.99609 10.5422C9.30659 10.5422 9.55859 10.7942 9.55859 11.1047V13.0075C9.55859 13.318 9.30659 13.57 8.99609 13.57" fill="#0E3449"/>
<mask id="mask0_1836_22369" style="mask-type:luminance" maskUnits="userSpaceOnUse" x="1" y="3" width="16" height="9">
<path fill-rule="evenodd" clip-rule="evenodd" d="M1.5 3.93494H16.4924V11.6682H1.5V3.93494Z" fill="white"/>
</mask>
<g mask="url(#mask0_1836_22369)">
<path fill-rule="evenodd" clip-rule="evenodd" d="M2.625 9.04469C4.407 10.0129 6.654 10.5432 8.9925 10.5432C11.3355 10.5432 13.5847 10.0129 15.3675 9.04469V6.79319C15.3675 5.83694 14.5942 5.05994 13.6425 5.05994H4.3575C3.402 5.05994 2.625 5.83394 2.625 6.78569V9.04469ZM8.9925 11.6682C6.33375 11.6682 3.771 11.0247 1.77825 9.85769C1.60575 9.75719 1.5 9.57269 1.5 9.37244V6.78569C1.5 5.21369 2.78175 3.93494 4.3575 3.93494H13.6425C15.2145 3.93494 16.4925 5.21669 16.4925 6.79319V9.37244C16.4925 9.57269 16.386 9.75719 16.2142 9.85769C14.2215 11.0247 11.6565 11.6682 8.9925 11.6682V11.6682Z" fill="#0E3449"/>
</g>
<mask id="mask1_1836_22369" style="mask-type:luminance" maskUnits="userSpaceOnUse" x="5" y="2" width="8" height="4">
<path fill-rule="evenodd" clip-rule="evenodd" d="M5.80859 2.00012H12.1836V5.05705H5.80859V2.00012Z" fill="white"/>
</mask>
<g mask="url(#mask1_1836_22369)">
<path fill-rule="evenodd" clip-rule="evenodd" d="M11.6211 5.057C11.3106 5.057 11.0586 4.805 11.0586 4.4945V4.22C11.0586 3.61625 10.5673 3.125 9.96359 3.125H8.02859C7.42484 3.125 6.93359 3.61625 6.93359 4.22V4.4945C6.93359 4.805 6.68159 5.057 6.37109 5.057C6.06059 5.057 5.80859 4.805 5.80859 4.4945V4.22C5.80859 2.996 6.80459 2 8.02859 2H9.96359C11.1876 2 12.1836 2.996 12.1836 4.22V4.4945C12.1836 4.805 11.9316 5.057 11.6211 5.057" fill="#0E3449"/>
</g>
<path fill-rule="evenodd" clip-rule="evenodd" d="M13.3459 16.8051H4.64593C3.08968 16.8051 1.77943 15.5894 1.66168 14.0369L1.51918 12.1551C1.49593 11.8454 1.72843 11.5746 2.03818 11.5514C2.34943 11.5401 2.61793 11.7599 2.64193 12.0704L2.78368 13.9514C2.85718 14.9204 3.67468 15.6801 4.64593 15.6801H13.3459C14.3172 15.6801 15.1354 14.9204 15.2082 13.9514L15.3507 12.0704C15.3747 11.7599 15.6499 11.5394 15.9544 11.5514C16.2642 11.5746 16.4959 11.8454 16.4727 12.1551L16.3302 14.0369C16.2124 15.5894 14.9022 16.8051 13.3459 16.8051" fill="#0E3449"/>
</svg>
